<svg xmlns="http://www.w3.org/2000/svg" viewBox="0 0 398.01 512"><defs><style>.cls-1{fill:#302482;}</style></defs><title>Ресурс 1</title><g id="Слой_2" data-name="Слой 2"><g id="Capa_1" data-name="Capa 1"><path class="cls-1" d="M342.68,308.61l35.68-28.12-.2-45.45L398,194.12,378.26,153.2l.2-45.46L342.78,79.52l-19.55-41-44.35-10L243.4,0,199.06,10.38,154.81,0,119.33,28.52,75,38.5l-19.56,41L19.65,107.74l.21,45.46L0,194.12,19.86,235l-.21,45.45,35.68,28.22,14.31,30.14L11.69,463.12l68.64-10.48L116.41,512l60.07-128.91L199,377.85,216.69,382l60.68,130,36.08-59.36,68.64,10.48L326.15,343.18ZM114.5,477,88.69,434.6l-49,7.45L82,351.14l37.29,8.37L154.81,388Zm84.56-116.21-40.22,9.47-32.15-25.9-40.31-9.07L68.64,298l-32.46-25.6.2-41.32L18.34,194l18-37.19-.2-41.33L68.64,89.9,86.38,52.61l40.31-9.07,32.15-25.9L199.06,27l40.21-9.37,32.15,25.9,40.32,9.07L329.47,89.9l32.46,25.6-.2,41.33,18,37.08-18,37.09.2,41.33-32.46,25.6-17.73,37.29-40.32,9.07-32.15,25.9Zm155,81.34-49-7.46L279.28,477l-42.13-90.31,6.15,1.41,35.48-28.52,33.36-7.46Z"/><path class="cls-1" d="M199.06,51.3c-78.72,0-142.82,64.1-142.82,142.82s64.1,142.81,142.82,142.81,142.81-64.1,142.81-142.81S277.77,51.3,199.06,51.3Zm0,269.1A126.29,126.29,0,1,1,325.34,194.12,126.41,126.41,0,0,1,199.06,320.4Z"/><path class="cls-1" d="M306.39,159.24h-82l-25.29-78-25.3,78h-82L158,207.42l-25.3,78,66.32-48.18,66.31,48.18-25.29-78ZM199.06,216.79l-35,25.4,13.31-41.12-35-25.4h43.14l13.3-41.12,13.31,41.12h43.13l-35,25.4L234,242.19Z"/></g></g></svg>