<svg xmlns="http://www.w3.org/2000/svg" viewBox="0 0 511.4 512"><defs><style>.cls-1,.cls-2{fill:#302482;}.cls-2{font-size:240px;font-family:Circe-Regular, Circe;}</style></defs><title>2</title><g id="Слой_2" data-name="Слой 2"><g id="Layer_1" data-name="Layer 1"><path class="cls-1" d="M442.9,312.2a8.52,8.52,0,0,0-11.68,3.05L333.38,482.13c-7.07,12.24-22.75,16.45-34.61,9.61l-19.06-12.36a8.54,8.54,0,0,0-9.29,14.33l19.44,12.58a42.7,42.7,0,0,0,58.27-15.57l97.81-166.84A8.53,8.53,0,0,0,442.9,312.2Z"/><path class="cls-1" d="M468.72,0H332.15c-26.41,0-46.09,8.41-65.79,28.11a8.53,8.53,0,1,0,12.07,12.07c16.63-16.63,31.7-23.11,53.72-23.11H468.72a25.64,25.64,0,0,1,25.61,25.61V179.25c0,22-6.48,37.09-23.11,53.72L217.72,486.83c-9.68,9.66-26.55,9.67-36.21,0L24.57,329.9a25.6,25.6,0,0,1,0-36.21L253.69,64.89c3.52.9,7.06,1.79,10.72,2.77C299.13,77,326.53,86.58,347,95.16A51.14,51.14,0,1,0,391.9,68.29a8.54,8.54,0,1,0,0,17.07,34.21,34.21,0,1,1-29.36,16.77c14.78,7.08,24,13,27.68,16.85a41.84,41.84,0,0,1-7.62,1.26,8.54,8.54,0,0,0,.74,17l.76,0c5.25-.47,21.22-1.88,24.29-13.33,8.41-31.4-114.79-66.11-139.57-72.75C230.91,41,194.51,34.06,166.3,31.61c-34.67-3-51.55.91-54.73,12.77-1.52,5.7-5.57,20.82,63.64,48.1a8.53,8.53,0,1,0,6.26-15.87C148,63.42,134.18,53.76,129.74,49.21c10.52-3.09,46.52-2.2,104.49,11L12.5,281.61a42.67,42.67,0,0,0,0,60.35L169.44,498.9a42.68,42.68,0,0,0,60.35,0L483.29,245c19.71-19.7,28.11-39.38,28.11-65.79V42.68A42.73,42.73,0,0,0,468.72,0Z"/><text class="cls-2" transform="translate(112.08 304.06) rotate(44.64)">₽</text></g></g></svg>