<svg xmlns="http://www.w3.org/2000/svg" viewBox="0 0 512 511.99"><defs><style>.cls-1{fill:#302482;}</style></defs><title>3</title><g id="Слой_2" data-name="Слой 2"><g id="Capa_1" data-name="Capa 1"><path class="cls-1" d="M256,0C190.12,0,136.53,59,136.53,131.41c0,70.46,108.67,185.35,113.29,190.2a8.53,8.53,0,0,0,12.36,0c4.62-4.85,113.28-119.74,113.28-190.2C375.46,59,321.88,0,256,0Zm0,303.13c-23-25.41-102.4-117-102.4-171.72,0-63,45.94-114.34,102.4-114.34s102.4,51.3,102.4,114.34C358.4,186.12,279,277.71,256,303.13Z"/><path class="cls-1" d="M415.63,360.89a8.54,8.54,0,0,0-12.07,0L389,375.46H119.47a8.51,8.51,0,0,0-6,2.5L96.37,395a8.53,8.53,0,1,0,12.06,12.06L123,392.53H392.53a8.51,8.51,0,0,0,6-2.5L415.63,373A8.52,8.52,0,0,0,415.63,360.89Z"/><path class="cls-1" d="M415.63,429.16a8.52,8.52,0,0,0-12.07,0L389,443.73H119.47a8.47,8.47,0,0,0-6,2.5L96.37,463.29a8.53,8.53,0,1,0,12.06,12.07L123,460.79H392.53a8.47,8.47,0,0,0,6-2.5l17.07-17.06A8.52,8.52,0,0,0,415.63,429.16Z"/><path class="cls-1" d="M145.07,409.59H128a8.54,8.54,0,0,0,0,17.07h17.07a8.54,8.54,0,0,0,0-17.07Z"/><path class="cls-1" d="M230.4,409.59H196.27a8.54,8.54,0,1,0,0,17.07H230.4a8.54,8.54,0,0,0,0-17.07Z"/><path class="cls-1" d="M315.73,409.59H281.6a8.54,8.54,0,0,0,0,17.07h34.13a8.54,8.54,0,0,0,0-17.07Z"/><path class="cls-1" d="M384,409.59H366.93a8.54,8.54,0,0,0,0,17.07H384a8.54,8.54,0,0,0,0-17.07Z"/><path class="cls-1" d="M256,51.2a68.27,68.27,0,1,0,68.27,68.26A68.35,68.35,0,0,0,256,51.2Zm0,119.46a51.2,51.2,0,1,1,51.2-51.2A51.25,51.25,0,0,1,256,170.66Z"/><path class="cls-1" d="M511.61,500.91,426.28,227.85a8.54,8.54,0,0,0-8.15-6H324.64a8.54,8.54,0,0,0-7.06,3.74c-23.09,34-49.76,64.49-61.58,77.53-11.82-13-38.48-43.5-61.59-77.53a8.54,8.54,0,0,0-7.06-3.74H93.87a8.55,8.55,0,0,0-8.15,6L.39,500.91A8.53,8.53,0,0,0,8.54,512H503.46a8.53,8.53,0,0,0,8.15-11.08Zm-491.47-6,80-256h82.71c30.78,44.53,65.47,81.11,67,82.68a8.8,8.8,0,0,0,12.36,0c1.5-1.57,36.18-38.16,67-82.68h82.71l80,256Z"/><path class="cls-1" d="M285.1,278.41a8.53,8.53,0,0,0-9.66,2.45c-8,9.49-14.83,17.2-19.44,22.28-4.61-5.07-11.47-12.79-19.45-22.28a8.55,8.55,0,0,0-9.66-2.45c-18.89,7.45-30.62,21.75-30.62,37.32,0,23.92,26.24,42.66,59.73,42.66s59.73-18.73,59.73-42.66C315.73,300.16,304,285.86,285.1,278.41ZM256,341.33c-23.13,0-42.67-11.73-42.67-25.6,0-7.08,5.38-14,14.38-18.91,12.79,15,21.7,24.36,22.11,24.79a8.79,8.79,0,0,0,12.36,0c.41-.44,9.31-9.81,22.11-24.79,9,4.89,14.38,11.83,14.38,18.91C298.66,329.6,279.12,341.33,256,341.33Z"/></g></g></svg>