<svg xmlns="http://www.w3.org/2000/svg" viewBox="0 0 141.73 141.73"><defs><style>.cls-1{fill:#302482;}</style></defs><title>4</title><g id="Слой_2" data-name="Слой 2"><g id="Capa_1" data-name="Capa 1"><path class="cls-1" d="M123.26,100.22l-13.22,19-9.33-7.66a2.36,2.36,0,1,0-3,3.65L109,124.49a2.34,2.34,0,0,0,1.5.54l.32,0a2.39,2.39,0,0,0,1.62-1l14.67-21.1a2.36,2.36,0,0,0-3.87-2.7Z"/><path class="cls-1" d="M73.23,61.47v-24a2.37,2.37,0,0,0-4.73,0v24a9.44,9.44,0,0,0-6.84,7H44.88a2.37,2.37,0,0,0,0,4.73h17A9.42,9.42,0,1,0,73.23,61.47ZM70.87,75.3a4.72,4.72,0,1,1,4.72-4.72A4.73,4.73,0,0,1,70.87,75.3Z"/><path class="cls-1" d="M70.87,23.34A2.37,2.37,0,0,0,73.23,21V18.61a2.37,2.37,0,0,0-4.73,0V21A2.37,2.37,0,0,0,70.87,23.34Z"/><path class="cls-1" d="M70.87,117.82a2.37,2.37,0,0,0-2.37,2.36v2.37a2.37,2.37,0,0,0,4.73,0v-2.37A2.36,2.36,0,0,0,70.87,117.82Z"/><path class="cls-1" d="M120.47,72.94h2.36a2.36,2.36,0,1,0,0-4.72h-2.36a2.36,2.36,0,1,0,0,4.72Z"/><path class="cls-1" d="M21.26,68.22H18.9a2.36,2.36,0,1,0,0,4.72h2.36a2.36,2.36,0,1,0,0-4.72Z"/><path class="cls-1" d="M105.94,37.86a2.35,2.35,0,0,0,1.67-.69l1.67-1.67a2.36,2.36,0,0,0-3.34-3.34l-1.67,1.67a2.36,2.36,0,0,0,1.67,4Z"/><path class="cls-1" d="M34.12,104l-1.67,1.67A2.36,2.36,0,0,0,35.79,109l1.67-1.67A2.36,2.36,0,0,0,34.12,104Z"/><path class="cls-1" d="M35.79,32.16a2.36,2.36,0,0,0-3.34,3.34l1.67,1.67a2.36,2.36,0,0,0,3.34-3.34Z"/><path class="cls-1" d="M141.73,70.87a70.93,70.93,0,1,0-46.42,66.49,30.65,30.65,0,0,0,42.05-42.05A70.44,70.44,0,0,0,141.73,70.87ZM90.65,134A66.15,66.15,0,1,1,134,90.65c-.18-.21-.39-.39-.58-.59-.39-.42-.78-.82-1.2-1.22s-.74-.69-1.13-1-.76-.64-1.15-.94-.87-.67-1.32-1-.78-.52-1.18-.77-.94-.6-1.42-.87-.85-.45-1.29-.66-1-.49-1.45-.7-1-.4-1.49-.58-.92-.36-1.39-.51-1.17-.33-1.76-.48c-.42-.11-.83-.24-1.25-.33-.7-.15-1.42-.24-2.13-.34-.34,0-.67-.12-1-.15a28.56,28.56,0,0,0-3.22-.18A30.75,30.75,0,0,0,80.31,111a28.56,28.56,0,0,0,.18,3.22c0,.34.1.67.15,1,.1.71.2,1.42.34,2.12.09.43.22.84.33,1.27s.29,1.17.48,1.74.34.94.51,1.41.36,1,.57,1.46.47,1,.72,1.47.42.86.65,1.27.58,1,.88,1.45.5.78.76,1.15.66.9,1,1.34.61.76.93,1.13.69.77,1,1.15.78.79,1.19,1.17C90.25,133.58,90.43,133.79,90.65,134ZM111,137a25.76,25.76,0,0,1-14.24-4.28,27.76,27.76,0,0,1-2.47-1.84l-.41-.37c-.59-.52-1.15-1.06-1.69-1.62-.23-.25-.46-.5-.68-.76-.43-.48-.83-1-1.22-1.49-.21-.28-.43-.56-.63-.84a24.93,24.93,0,0,1-1.34-2.15l-.32-.58c-.39-.75-.74-1.51-1.06-2.29-.12-.3-.23-.62-.34-.93-.23-.62-.43-1.25-.61-1.89-.09-.33-.18-.66-.26-1-.16-.67-.28-1.35-.39-2,0-.3-.1-.6-.14-.91a27.14,27.14,0,0,1-.18-3,26,26,0,0,1,26-26,24.78,24.78,0,0,1,3,.19c.31,0,.61.09.91.14.68.1,1.36.23,2,.38l1,.26c.64.18,1.27.39,1.89.61l.93.34c.78.32,1.54.67,2.28,1.06.2.11.4.21.59.33a24.84,24.84,0,0,1,2.15,1.33c.29.2.56.42.84.63.51.39,1,.79,1.49,1.22l.76.69c.56.54,1.1,1.1,1.62,1.69l.37.41a26.24,26.24,0,0,1,1.84,2.46A25.76,25.76,0,0,1,137,111,26,26,0,0,1,111,137Z"/></g></g></svg>