<svg xmlns="http://www.w3.org/2000/svg" viewBox="0 0 512 323.87"><defs><style>.cls-1{fill:#302482;}</style></defs><title>5</title><g id="Слой_2" data-name="Слой 2"><g id="Layer_1" data-name="Layer 1"><path class="cls-1" d="M476.16,137.3l-13.26-53a8,8,0,0,0,6.34-7.84V67.88a33.7,33.7,0,0,0-33.67-33.67H375.18V16.57A16.58,16.58,0,0,0,358.61,0H50.77A16.59,16.59,0,0,0,34.2,16.57V161.94a8,8,0,0,0,16,0V16.57a.54.54,0,0,1,.53-.54H358.61a.54.54,0,0,1,.54.54V161.94a8,8,0,1,0,16,0v-9.09h94.61A26.25,26.25,0,0,1,494.71,171H469.78a8,8,0,0,0-8,8v17.1a25.15,25.15,0,0,0,25.12,25.12H496v35.28H475a50.75,50.75,0,0,0-96,0h-3.86v-60.4a8,8,0,1,0-16,0v60.39H192.82a50.76,50.76,0,0,0-96,0H50.77a.53.53,0,0,1-.53-.53V238.36H85a8,8,0,0,0,0-16H8a8,8,0,1,0,0,16H34.21V256a16.59,16.59,0,0,0,16.56,16.57H94.08c0,.18,0,.35,0,.53a50.78,50.78,0,0,0,101.55,0c0-.18,0-.35,0-.53H376.26c0,.18,0,.35,0,.53a50.77,50.77,0,0,0,101.54,0c0-.18,0-.35,0-.53H504a8,8,0,0,0,8-8V179A42.3,42.3,0,0,0,476.16,137.3Zm-101-87.06h60.39a17.66,17.66,0,0,1,17.64,17.64v.53h-78Zm0,86.58V84.44h71.24l13.09,52.38Zm-230.34,171a34.74,34.74,0,1,1,34.73-34.74A34.77,34.77,0,0,1,144.84,307.84Zm282.18,0a34.74,34.74,0,1,1,34.74-34.74A34.78,34.78,0,0,1,427,307.84Zm69-102.61h-9.09a9.09,9.09,0,0,1-9.08-9.09v-9.08H496v18.17Z"/><path class="cls-1" d="M144.84,256.54A16.57,16.57,0,1,0,161.4,273.1,16.58,16.58,0,0,0,144.84,256.54Z"/><path class="cls-1" d="M427,256.54a16.57,16.57,0,1,0,16.57,16.56A16.58,16.58,0,0,0,427,256.54Z"/><path class="cls-1" d="M333,222.33H213.24a8,8,0,0,0,0,16H333a8,8,0,1,0,0-16Z"/><path class="cls-1" d="M127.73,188.13H25.12a8,8,0,1,0,0,16H127.73a8,8,0,1,0,0-16Z"/><path class="cls-1" d="M278.77,79.31a8,8,0,0,0-11.34,0L196.14,150.6l-37.08-37.09a8,8,0,1,0-11.34,11.34l42.75,42.76a8,8,0,0,0,11.34,0l77-77A8,8,0,0,0,278.77,79.31Z"/></g></g></svg>