<svg xmlns="http://www.w3.org/2000/svg" viewBox="0 0 512 375.87"><defs><style>.cls-1{fill:#302482;}</style></defs><title>6</title><g id="Слой_2" data-name="Слой 2"><g id="Layer_1" data-name="Layer 1"><path class="cls-1" d="M451.72,169.19c-17.42-8.71-50.09-8.81-51.47-8.81a7.5,7.5,0,0,0,0,15c8.43,0,32.9,1.3,44.76,7.23a7.5,7.5,0,0,0,6.71-13.42Z"/><path class="cls-1" d="M489.11,276l-31-8.84a3.16,3.16,0,0,1-2.27-3V253.78a56.22,56.22,0,0,0,7.17-5.89A55.15,55.15,0,0,0,479.92,208V193.71l3-6a47.76,47.76,0,0,0,5-21.28V127.79a7.49,7.49,0,0,0-7.5-7.5H408.27a47.65,47.65,0,0,0-47.6,47.59v.45a39.85,39.85,0,0,0,4.18,17.7l3.84,7.68V206a58.55,58.55,0,0,0,24.06,47.32v10.83c0,1.67,0,2.36-6.19,4.14l-15.11,4.31-43.72-15.89a7.51,7.51,0,0,0-2.05-5.75l-14-14.67V211.6c1.48-1.21,2.93-2.46,4.34-3.78a88,88,0,0,0,27.74-64V124.15a86.74,86.74,0,0,0,8-36.46V7.5a7.5,7.5,0,0,0-7.5-7.5H232a71.74,71.74,0,0,0-71.66,71.65v16a86.74,86.74,0,0,0,8,36.46v16.93A91.66,91.66,0,0,0,200.48,211v25.22l-14,14.67a7.51,7.51,0,0,0-2,5.75l-46.14,16.78a39.31,39.31,0,0,0-9.27,4.85l-7.25-3.62c21.57-9.39,28.41-22.59,28.73-23.25a7.48,7.48,0,0,0,0-6.71c-5.4-10.81-6.06-30.63-6.58-46.56-.18-5.3-.35-10.31-.66-14.77-2.56-36-29.91-63.1-63.62-63.1s-61.06,27.12-63.61,63.1c-.32,4.46-.49,9.47-.66,14.77-.53,15.93-1.18,35.75-6.59,46.56a7.48,7.48,0,0,0,0,6.71c.33.65,7.15,13.83,28.76,23.23L17.44,284.73A31.37,31.37,0,0,0,0,313v55.41a7.5,7.5,0,0,0,15,0V313a16.49,16.49,0,0,1,9.15-14.81l25.06-12.53,8.72,8.29a31.54,31.54,0,0,0,43.48,0l8.72-8.29,8.17,4.09a39.49,39.49,0,0,0-6,20.94v57.73a7.5,7.5,0,0,0,15,0V310.64a24.65,24.65,0,0,1,16.18-23.1l48.65-17.69,20.25,30.38a15.46,15.46,0,0,0,11.38,6.84c.52.05,1,.07,1.55.07a15.48,15.48,0,0,0,11-4.54l12.35-12.36v78.13a7.5,7.5,0,0,0,15,0V290.24L276,302.6a15.47,15.47,0,0,0,11,4.55c.51,0,1,0,1.54-.08a15.46,15.46,0,0,0,11.39-6.84l20.25-30.38,48.65,17.69a24.66,24.66,0,0,1,16.18,23.1v57.73a7.5,7.5,0,0,0,15,0V310.64a39.63,39.63,0,0,0-11.09-27.44l1.85-.53a40.34,40.34,0,0,0,7-2.52l19.15,19.15v69.07a7.5,7.5,0,0,0,15,0V299.3l19-19a18.51,18.51,0,0,0,3.2,1.26l31,8.85a16.63,16.63,0,0,1,12,15.92v62.05a7.5,7.5,0,0,0,15,0V306.32A31.7,31.7,0,0,0,489.11,276Zm-441-13.24C34.09,257.68,27.05,251,24,247.28a82.75,82.75,0,0,0,4.28-18,55.94,55.94,0,0,0,19.8,24.42Zm43,20.3a16.56,16.56,0,0,1-22.81,0l-7-6.63a15.52,15.52,0,0,0,1.83-7.33v-8a55.64,55.64,0,0,0,33.11,0v8a15.63,15.63,0,0,0,1.82,7.33ZM79.68,248.6A40.66,40.66,0,0,1,39.06,208a7.5,7.5,0,0,0-7.5-7.5,7.12,7.12,0,0,0-1.23.11c0-.64,0-1.29.07-1.93.16-5.16.32-10,.62-14.2a55.68,55.68,0,0,1,15.16-35,46.59,46.59,0,0,1,67,0,55.63,55.63,0,0,1,15.17,35c.29,4.17.46,9,.63,14.2,0,.44,0,.89,0,1.34-8.16-12.58-20.76-21.84-37-27.07a93.68,93.68,0,0,0-28.53-4.52,7.43,7.43,0,0,0-5.19,2.29l-13.53,14A7.5,7.5,0,1,0,55.5,195.14l11.26-11.67c9.7.47,40.9,4.1,53,30.82A40.52,40.52,0,0,1,79.68,248.6Zm31.55,14.15v-8.94A55.48,55.48,0,0,0,131,229.36a82.82,82.82,0,0,0,4.27,17.92C132.31,250.92,125.24,257.71,111.23,262.75ZM183.4,141.08V122.47a7.51,7.51,0,0,0-.74-3.26,71.89,71.89,0,0,1-7.28-31.52v-16A56.72,56.72,0,0,1,232,15H336.81V87.69a71.89,71.89,0,0,1-7.28,31.52,7.51,7.51,0,0,0-.74,3.26v21.36a72,72,0,0,1-23,53,75.46,75.46,0,0,1-5.76,4.88l-.13.09a72.1,72.1,0,0,1-48.67,14.52C213.2,213.9,183.4,180.83,183.4,141.08ZM225.63,292a.49.49,0,0,1-.42.15.48.48,0,0,1-.38-.23l-23.32-35L209,249l35.39,24.18Zm30.47-28.94-40.62-27.76v-14a84.48,84.48,0,0,0,34.79,10c2,.13,3.94.19,5.9.19a86.84,86.84,0,0,0,40.54-9.94v13.71Zm31.26,28.86a.48.48,0,0,1-.38.23.46.46,0,0,1-.42-.15l-18.77-18.77L303.18,249l7.5,7.88Zm137-6.33-17-17a21.15,21.15,0,0,0,.46-4.46V261a52.42,52.42,0,0,0,14.85,2.62c.58,0,1.15,0,1.73,0a55.47,55.47,0,0,0,16.54-2.5v3a17.69,17.69,0,0,0,.54,4.38Zm28.28-48.45a40.34,40.34,0,0,1-29.54,11.45c-21.7-.66-39.36-19.77-39.36-42.62v-14a7.5,7.5,0,0,0-.79-3.35l-4.63-9.27a24.64,24.64,0,0,1-2.6-11v-.45a32.64,32.64,0,0,1,32.6-32.59h64.67v31.15A32.83,32.83,0,0,1,469.5,181l-3.78,7.57a7.51,7.51,0,0,0-.8,3.35v16A40.31,40.31,0,0,1,452.59,237.13Z"/><path class="cls-1" d="M472.42,312.75a7.5,7.5,0,0,0-7.5,7.5v48.11a7.5,7.5,0,0,0,15,0V320.25A7.5,7.5,0,0,0,472.42,312.75Z"/><path class="cls-1" d="M39.58,322.66a7.5,7.5,0,0,0-7.5,7.5v38.2a7.5,7.5,0,0,0,15,0v-38.2A7.5,7.5,0,0,0,39.58,322.66Z"/><path class="cls-1" d="M317.53,90.41C289.17,62,229.82,67.47,205.62,71.11a15.4,15.4,0,0,0-13.16,15.34v17.28a7.5,7.5,0,0,0,15,0V86.45a.49.49,0,0,1,.39-.5c9.67-1.46,28.85-3.71,48.73-2.39C280,85.12,296.91,91,306.93,101a7.5,7.5,0,1,0,10.6-10.6Z"/><path class="cls-1" d="M167.88,328.79a7.5,7.5,0,0,0-7.5,7.5v32.07a7.5,7.5,0,0,0,15,0V336.29A7.5,7.5,0,0,0,167.88,328.79Z"/><path class="cls-1" d="M344.31,328.79a7.5,7.5,0,0,0-7.5,7.5v32.07a7.5,7.5,0,0,0,15,0V336.29A7.5,7.5,0,0,0,344.31,328.79Z"/></g></g></svg>