<svg xmlns="http://www.w3.org/2000/svg" viewBox="0 0 362.67 512"><defs><style>.cls-1{fill:#302482;}</style></defs><title>Ресурс 1</title><g id="Слой_2" data-name="Слой 2"><g id="Layer_1" data-name="Layer 1"><path class="cls-1" d="M208,192l-48.91,85.59-25.76-42.93-64,106.67h224ZM134.86,320H107l26.31-43.87L147,298.83Zm24.56,0L208,235l48.56,85Z"/><path class="cls-1" d="M341.33,85.33H320V64H298.67V0H277.33V64H256V85.33H106.67V64H85.33V0H64V64H42.67V85.33H0V512H362.67V85.33Zm-64,0h21.34v21.33H277.33ZM64,85.33H85.33v21.33H64ZM341.33,490.66h-320v-384H42.67V128h64V106.66H256V128h64V106.66h21.33Z"/><path class="cls-1" d="M224,426.66H138.67a10.67,10.67,0,1,0,0,21.34H224a10.67,10.67,0,0,0,0-21.34Z"/><path class="cls-1" d="M266.67,384H96a10.67,10.67,0,1,0,0,21.33H266.67a10.67,10.67,0,0,0,0-21.33Z"/></g></g></svg>