<svg xmlns="http://www.w3.org/2000/svg" viewBox="0 0 512 512"><defs><style>.cls-1{fill:#302482;}</style></defs><title>Ресурс 1</title><g id="Слой_2" data-name="Слой 2"><g id="Capa_1" data-name="Capa 1"><path class="cls-1" d="M17.07,17.07H264.53V85.33c0,5.12,3.42,8.54,8.54,8.54h68.26v25.6H358.4V85.33h0a3.15,3.15,0,0,0-.85-2.56v-.85c-.86-.85-.86-1.71-1.71-2.56L279,2.56c-.85-.85-1.71-.85-2.56-1.71h-.85c-.86,0-1.71-.85-2.56-.85H8.53C3.41,0,0,3.41,0,8.53V503.47C0,508.59,3.41,512,8.53,512h128V494.93H17.07V17.07ZM329.39,76.8H281.6V29Z"/><path class="cls-1" d="M503.47,136.53H264.53c-5.12,0-8.53,3.42-8.53,8.54V281.6c0,5.12,3.41,8.53,8.53,8.53H503.47c5.12,0,8.53-3.41,8.53-8.53V145.07C512,140,508.59,136.53,503.47,136.53Zm-8.54,136.54H273.07V153.6H494.93Z"/><path class="cls-1" d="M503.47,307.2H162.13c-5.12,0-8.53,3.41-8.53,8.53V503.47c0,5.12,3.41,8.53,8.53,8.53H503.47c5.12,0,8.53-3.41,8.53-8.53V315.73C512,310.61,508.59,307.2,503.47,307.2ZM473.6,324.27,341.33,407.89,193.71,324.27ZM170.67,494.93V331.09l166.4,94.72a7.62,7.62,0,0,0,4.26.86,12.14,12.14,0,0,0,5.12-1.71l148.48-93.87V494.93Z"/><rect class="cls-1" x="426.67" y="187.73" width="42.67" height="17.07"/><rect class="cls-1" x="375.47" y="221.87" width="93.87" height="17.07"/><path class="cls-1" d="M324.27,238.93a25.6,25.6,0,1,0-25.6-25.6A25.15,25.15,0,0,0,324.27,238.93Zm0-34.13c5.12,0,8.53,3.41,8.53,8.53s-3.41,8.54-8.53,8.54-8.54-3.42-8.54-8.54S319.15,204.8,324.27,204.8Z"/><rect class="cls-1" x="51.2" y="51.2" width="51.2" height="17.07"/><rect class="cls-1" x="51.2" y="93.87" width="162.13" height="17.07"/><rect class="cls-1" x="51.2" y="153.6" width="102.4" height="17.07"/><rect class="cls-1" x="51.2" y="204.8" width="162.13" height="17.07"/><rect class="cls-1" x="51.2" y="256" width="162.13" height="17.07"/><rect class="cls-1" x="51.2" y="307.2" width="76.8" height="17.07"/><rect class="cls-1" x="51.2" y="358.4" width="76.8" height="17.07"/><rect class="cls-1" x="51.2" y="409.6" width="76.8" height="17.07"/></g></g></svg>