<svg xmlns="http://www.w3.org/2000/svg" viewBox="0 0 440.02 512"><defs><style>.cls-1{fill:#302482;}</style></defs><title>Ресурс 1</title><g id="Слой_2" data-name="Слой 2"><g id="Layer_1" data-name="Layer 1"><path class="cls-1" d="M439.79,424.92,386,196.13V43.1a8.83,8.83,0,0,0-8.83-8.84H347.88L341.42,6.81A8.83,8.83,0,0,0,330.8.24l-144.64,34H44.3a8.83,8.83,0,0,0-8.83,8.84V69.72L6.81,76.46A8.84,8.84,0,0,0,.23,87.08L35.47,236.85V472.62a8.83,8.83,0,0,0,8.83,8.83H93l5.58,23.74a8.83,8.83,0,0,0,8.6,6.81,8.65,8.65,0,0,0,2-.24l128.86-30.31h139a8.83,8.83,0,0,0,8.83-8.83v-26l47.25-11.12A8.84,8.84,0,0,0,439.79,424.92Zm-71.49-373v69.12L352,51.93Zm-315.17,0h58L53.13,65.56Zm0,411.86V311.93L88.86,463.79Zm315.17,0H313.16l55.14-13ZM113.77,492.55,19.45,91.63l306.8-72.18,94.32,400.92Z"/><path class="cls-1" d="M173.7,233.92l-8.29-35.25a43,43,0,0,0-19.35-26.89,44,44,0,0,0-5.86-3,45.43,45.43,0,0,0,3.46-4.83A45.1,45.1,0,1,0,86.88,181.3a43.2,43.2,0,0,0-9.26,38l8.29,35.25a8.8,8.8,0,0,0,10.62,6.58l70.59-16.61a8.82,8.82,0,0,0,6.58-10.62ZM78.62,146.45a27.43,27.43,0,1,1,33,20.42h0A27.46,27.46,0,0,1,78.62,146.45Zm22.47,95.48-6.27-26.65a25.63,25.63,0,0,1,19.06-30.8l3.53-.83a26,26,0,0,1,5.92-.69,25.65,25.65,0,0,1,24.88,19.76l6.27,26.65Z"/><path class="cls-1" d="M261.77,415.23a8.84,8.84,0,0,0-10.62-6.58L143.46,434a8.83,8.83,0,1,0,4,17.19l107.7-25.33A8.83,8.83,0,0,0,261.77,415.23Z"/><path class="cls-1" d="M369.47,349.3a8.85,8.85,0,0,0-10.62-6.58L134.41,395.53a8.83,8.83,0,1,0,4,17.19l224.44-52.8A8.84,8.84,0,0,0,369.47,349.3Z"/><path class="cls-1" d="M360.42,310.84a8.84,8.84,0,0,0-10.62-6.58l-224.44,52.8a8.83,8.83,0,0,0,4,17.2l224.44-52.81A8.83,8.83,0,0,0,360.42,310.84Z"/><path class="cls-1" d="M351.37,272.37a8.83,8.83,0,0,0-10.62-6.57L116.31,318.6a8.83,8.83,0,0,0,4,17.2L344.79,283A8.83,8.83,0,0,0,351.37,272.37Z"/><path class="cls-1" d="M342.32,233.91a8.83,8.83,0,0,0-10.62-6.57l-224.44,52.8a8.83,8.83,0,1,0,4,17.19l224.44-52.8A8.84,8.84,0,0,0,342.32,233.91Z"/><path class="cls-1" d="M328.34,174.48a8.83,8.83,0,0,0-10.62-6.57L199.16,195.8a8.84,8.84,0,0,0,4.05,17.2l118.55-27.9A8.84,8.84,0,0,0,328.34,174.48Z"/><path class="cls-1" d="M319.29,136a8.83,8.83,0,0,0-10.62-6.57L190.11,157.34a8.83,8.83,0,1,0,4,17.19l118.55-27.89A8.83,8.83,0,0,0,319.29,136Z"/><path class="cls-1" d="M241,95.39a8.82,8.82,0,0,0-10.62-6.57L177,101.38a8.83,8.83,0,1,0,4,17.19L234.39,106A8.83,8.83,0,0,0,241,95.39Z"/></g></g></svg>