<svg xmlns="http://www.w3.org/2000/svg" viewBox="0 0 512 512"><defs><style>.cls-1{fill:#302482;}</style></defs><title>Ресурс 1</title><g id="Слой_2" data-name="Слой 2"><g id="Layer_1" data-name="Layer 1"><path class="cls-1" d="M171.34,0V81.11H0V512H340.66V430.89H512V0Zm15.21,20.18L302.7,81.11H186.55Zm138.9,410.71v65.9H15.21V96.32H325.45Zm171.34-15.21H340.66V81.11h-5.23L209.81,15.21h287Z"/><path class="cls-1" d="M33.46,136.87V324.44H308.21V136.87ZM52.67,309.23l58.55-109.4a8.63,8.63,0,0,1,15-.33l64.91,109.73Zm156.15,0-16-27.13,17.16-30.4A12.68,12.68,0,0,1,229.82,250L285,309.23ZM293,295.49,241,239.62a27.89,27.89,0,0,0-44,4.09L183.83,267l-44.5-75.24a23.82,23.82,0,0,0-41.51.89L48.67,284.48V152.08H293V295.49Z"/><path class="cls-1" d="M247.89,165.26a27.88,27.88,0,1,0,27.88,27.88A27.92,27.92,0,0,0,247.89,165.26Zm0,40.55a12.67,12.67,0,1,1,12.67-12.67A12.68,12.68,0,0,1,247.89,205.81Z"/><rect class="cls-1" x="32.95" y="347.75" width="121.66" height="15.21"/><rect class="cls-1" x="32.95" y="380.2" width="121.66" height="15.21"/><rect class="cls-1" x="32.95" y="412.64" width="121.66" height="15.21"/><rect class="cls-1" x="32.95" y="445.09" width="121.66" height="15.21"/><rect class="cls-1" x="185.03" y="347.75" width="121.66" height="15.21"/><rect class="cls-1" x="185.03" y="380.2" width="121.66" height="15.21"/><rect class="cls-1" x="185.03" y="412.64" width="121.66" height="15.21"/><rect class="cls-1" x="185.03" y="445.09" width="81.11" height="15.21"/><polygon class="cls-1" points="310.75 39.54 310.75 54.75 461.31 54.75 461.31 138.9 353.33 138.9 353.33 154.11 476.52 154.11 476.52 39.54 310.75 39.54"/><path class="cls-1" d="M366,171.34V279.83H476.52V171.34Zm95.31,93.28h-80.1V186.55h80.1Z"/><rect class="cls-1" x="365.5" y="295.03" width="111.53" height="15.21"/><rect class="cls-1" x="365.5" y="324.1" width="111.53" height="15.21"/><rect class="cls-1" x="365.5" y="353.16" width="111.53" height="15.21"/><rect class="cls-1" x="365.5" y="382.23" width="68.94" height="15.21"/></g></g></svg>