<svg xmlns="http://www.w3.org/2000/svg" viewBox="0 0 414.4 511.99"><defs><style>.cls-1{fill:#302482;}</style></defs><title>Ресурс 1</title><g id="Слой_2" data-name="Слой 2"><g id="Layer_1" data-name="Layer 1"><path class="cls-1" d="M376.76,0H48.3C43,0,37.64,3.67,37.64,9V58h-28a9.66,9.66,0,0,0,0,19.32h28v29h-28a9.66,9.66,0,0,0,0,19.32h28v29h-28a9.66,9.66,0,0,0,0,19.32h28v29h-28a9.66,9.66,0,0,0,0,19.32h28v29h-28a9.66,9.66,0,1,0,0,19.32h28v29h-28a9.66,9.66,0,0,0,0,19.32h28v29h-28a9.66,9.66,0,0,0,0,19.32h28v29h-28a9.66,9.66,0,0,0,0,19.32h28v29h-28a9.66,9.66,0,0,0,0,19.32h28v38C37.64,507,43,512,48.3,512H376.75c21.31,0,37.65-18,37.65-39.29V38C414.4,16.68,398.06,0,376.76,0ZM337.11,492.68H57v-29h30a9.66,9.66,0,1,0,0-19.32H57v-29h30a9.66,9.66,0,0,0,0-19.32H57v-29h30a9.66,9.66,0,0,0,0-19.32H57v-29h30a9.66,9.66,0,1,0,0-19.31H57v-29h30a9.66,9.66,0,0,0,0-19.32H57v-29h30a9.66,9.66,0,0,0,0-19.32H57v-29h30a9.66,9.66,0,0,0,0-19.32H57v-29h30a9.66,9.66,0,0,0,0-19.32H57v-29h30a9.66,9.66,0,0,0,0-19.32H57V19.32H337.11Zm58-20c0,10.65-7.67,20-18.33,20H356.43V19.32h20.32c10.66,0,18.33,8,18.33,18.67Z"/></g></g></svg>