<svg xmlns="http://www.w3.org/2000/svg" viewBox="0 0 512 512"><defs><style>.cls-1{fill:#302482;}</style></defs><title>Ресурс 1</title><g id="Слой_2" data-name="Слой 2"><g id="Capa_1" data-name="Capa 1"><path class="cls-1" d="M428.8,93.87c-13.34-7.15-96.27-51.8-141.85-80.4a42.29,42.29,0,0,0-61.9,0C179.46,42.06,96.54,86.72,83.2,93.87H0V512H512V93.87ZM275,25.63a.64.64,0,0,0,.08.14,26.16,26.16,0,0,1,5.61,10.38c.1.38.27.74.36,1.14a25.28,25.28,0,0,1,.58,5.38,25.6,25.6,0,0,1-51.2,0,24.63,24.63,0,0,1,.59-5.38c.08-.39.25-.74.35-1.13A26.33,26.33,0,0,1,237,25.77s0-.09.08-.14a25.3,25.3,0,0,1,37.94,0ZM213.38,40.57c0,.7,0,1.4,0,2.1a42.67,42.67,0,0,0,85.34,0c0-.7,0-1.4-.05-2.1C329.28,58.79,367.18,79.8,393,93.87H119C144.82,79.8,182.72,58.79,213.38,40.57Zm-128,70.36h409.6V153.6H17.07V110.93Zm-68.26,384V170.67H494.93V494.93Z"/><circle class="cls-1" cx="196.27" cy="238.93" r="8.53"/><circle class="cls-1" cx="256" cy="238.93" r="8.53"/><circle class="cls-1" cx="315.73" cy="238.93" r="8.53"/><circle class="cls-1" cx="375.47" cy="238.93" r="8.53"/><circle class="cls-1" cx="435.2" cy="238.93" r="8.53"/><path class="cls-1" d="M76.8,298.67a8.53,8.53,0,1,1-8.53,8.53A8.53,8.53,0,0,1,76.8,298.67Z"/><path class="cls-1" d="M136.53,298.67A8.53,8.53,0,1,1,128,307.2,8.53,8.53,0,0,1,136.53,298.67Z"/><circle class="cls-1" cx="196.27" cy="307.2" r="8.53"/><circle class="cls-1" cx="256" cy="307.2" r="8.53"/><circle class="cls-1" cx="315.73" cy="307.2" r="8.53"/><circle class="cls-1" cx="375.47" cy="307.2" r="8.53"/><circle class="cls-1" cx="435.2" cy="307.2" r="8.53"/><path class="cls-1" d="M76.8,358.4a8.54,8.54,0,1,1-8.53,8.53A8.53,8.53,0,0,1,76.8,358.4Z"/><path class="cls-1" d="M136.53,358.4a8.54,8.54,0,1,1-8.53,8.53A8.53,8.53,0,0,1,136.53,358.4Z"/><circle class="cls-1" cx="196.27" cy="366.93" r="8.53"/><circle class="cls-1" cx="256" cy="366.93" r="8.53"/><circle class="cls-1" cx="315.73" cy="366.93" r="8.53"/><circle class="cls-1" cx="375.47" cy="366.93" r="8.53"/><circle class="cls-1" cx="435.2" cy="366.93" r="8.53"/><path class="cls-1" d="M76.8,426.67a8.53,8.53,0,1,1-8.53,8.53A8.53,8.53,0,0,1,76.8,426.67Z"/><path class="cls-1" d="M136.53,426.67A8.53,8.53,0,1,1,128,435.2,8.53,8.53,0,0,1,136.53,426.67Z"/><circle class="cls-1" cx="196.27" cy="435.2" r="8.53"/><circle class="cls-1" cx="256" cy="435.2" r="8.53"/><circle class="cls-1" cx="315.73" cy="435.2" r="8.53"/></g></g></svg>