<svg xmlns="http://www.w3.org/2000/svg" viewBox="0 0 512 441.23"><defs><style>.cls-1{fill:#302482;}</style></defs><title>Ресурс 1</title><g id="Слой_2" data-name="Слой 2"><g id="Слой_1-2" data-name="Слой 1"><path class="cls-1" d="M477.17,53.08H348.1L314.7,16.9A52.67,52.67,0,0,0,276.1,0H34.83A34.88,34.88,0,0,0,0,34.83V406.39a34.88,34.88,0,0,0,34.83,34.84H477.17A34.88,34.88,0,0,0,512,406.39V87.91A34.88,34.88,0,0,0,477.17,53.08ZM302.51,28.15l23,24.93H295L261.62,16.9l-.3-.31H276.1A36,36,0,0,1,302.51,28.15ZM223,16.59a36,36,0,0,1,26.41,11.56l23,24.93H237.85L204.46,16.9c-.1-.11-.21-.21-.31-.31Zm-188.19,0h131a36,36,0,0,1,26.41,11.56l23,24.93H34.83a34.61,34.61,0,0,0-18.24,5.18V34.83A18.26,18.26,0,0,1,34.83,16.59Zm460.58,389.8a18.27,18.27,0,0,1-18.24,18.25H34.83a18.27,18.27,0,0,1-18.24-18.25V87.91A18.26,18.26,0,0,1,34.83,69.67H477.17a18.26,18.26,0,0,1,18.24,18.24Z"/><path class="cls-1" d="M441.78,106.16H317.93a17.16,17.16,0,0,0-17.14,17.14v88.47a17.16,17.16,0,0,0,17.14,17.14H441.78a17.16,17.16,0,0,0,17.14-17.14V123.3A17.16,17.16,0,0,0,441.78,106.16Zm.55,105.61a.55.55,0,0,1-.55.55H317.93a.56.56,0,0,1-.56-.55V123.3a.56.56,0,0,1,.56-.55H441.78a.55.55,0,0,1,.55.55Z"/><path class="cls-1" d="M415.24,141.55H344.47a8.29,8.29,0,1,0,0,16.58h70.77a8.29,8.29,0,0,0,0-16.58Z"/><path class="cls-1" d="M415.24,176.93H344.47a8.3,8.3,0,1,0,0,16.59h70.77a8.3,8.3,0,0,0,0-16.59Z"/></g></g></svg>