<svg xmlns="http://www.w3.org/2000/svg" viewBox="0 0 362.67 512"><defs><style>.cls-1{fill:#302482}</style></defs><g id="Слой_2" data-name="Слой 2"><g id="Layer_1" data-name="Layer 1"><path class="cls-1" d="M208 192l-48.91 85.59-25.76-42.93-64 106.67h224zm-73.14 128H107l26.31-43.87 13.69 22.7zm24.56 0L208 235l48.56 85z"/><path class="cls-1" d="M341.33 85.33H320V64h-21.33V0h-21.34v64H256v21.33H106.67V64H85.33V0H64v64H42.67v21.33H0V512h362.67V85.33zm-64 0h21.34v21.33h-21.34zM64 85.33h21.33v21.33H64zm277.33 405.33h-320v-384h21.34V128h64v-21.34H256V128h64v-21.34h21.33z"/><path class="cls-1" d="M224 426.66h-85.33a10.67 10.67 0 1 0 0 21.34H224a10.67 10.67 0 0 0 0-21.34zM266.67 384H96a10.67 10.67 0 1 0 0 21.33h170.67a10.67 10.67 0 0 0 0-21.33z"/></g></g></svg>