<svg xmlns="http://www.w3.org/2000/svg" viewBox="0 0 512 512"><defs><style>.cls-1{fill:#302482}</style></defs><g id="Слой_2" data-name="Слой 2"><g id="Capa_1" data-name="Capa 1"><path class="cls-1" d="M17.07 17.07h247.46v68.26c0 5.12 3.42 8.54 8.54 8.54h68.26v25.6h17.07V85.33a3.15 3.15 0 0 0-.85-2.56v-.85c-.86-.85-.86-1.71-1.71-2.56L279 2.56c-.85-.85-1.71-.85-2.56-1.71h-.85c-.86 0-1.71-.85-2.56-.85H8.53C3.41 0 0 3.41 0 8.53v494.94c0 5.12 3.41 8.53 8.53 8.53h128v-17.07H17.07V17.07zM329.39 76.8H281.6V29z"/><path class="cls-1" d="M503.47 136.53H264.53c-5.12 0-8.53 3.42-8.53 8.54V281.6c0 5.12 3.41 8.53 8.53 8.53h238.94c5.12 0 8.53-3.41 8.53-8.53V145.07c0-5.07-3.41-8.54-8.53-8.54zm-8.54 136.54H273.07V153.6h221.86zm8.54 34.13H162.13c-5.12 0-8.53 3.41-8.53 8.53v187.74c0 5.12 3.41 8.53 8.53 8.53h341.34c5.12 0 8.53-3.41 8.53-8.53V315.73c0-5.12-3.41-8.53-8.53-8.53zm-29.87 17.07l-132.27 83.62-147.62-83.62zM170.67 494.93V331.09l166.4 94.72a7.62 7.62 0 0 0 4.26.86 12.14 12.14 0 0 0 5.12-1.71l148.48-93.87v163.84z"/><path class="cls-1" d="M426.67 187.73h42.67v17.07h-42.67zm-51.2 34.14h93.87v17.07h-93.87zm-51.2 17.06a25.6 25.6 0 1 0-25.6-25.6 25.15 25.15 0 0 0 25.6 25.6zm0-34.13c5.12 0 8.53 3.41 8.53 8.53s-3.41 8.54-8.53 8.54-8.54-3.42-8.54-8.54 3.42-8.53 8.54-8.53zM51.2 51.2h51.2v17.07H51.2zm0 42.67h162.13v17.07H51.2zm0 59.73h102.4v17.07H51.2zm0 51.2h162.13v17.07H51.2zm0 51.2h162.13v17.07H51.2zm0 51.2H128v17.07H51.2zm0 51.2H128v17.07H51.2zm0 51.2H128v17.07H51.2z"/></g></g></svg>