<svg xmlns="http://www.w3.org/2000/svg" viewBox="0 0 440.02 512"><defs><style>.cls-1{fill:#302482}</style></defs><g id="Слой_2" data-name="Слой 2"><g id="Layer_1" data-name="Layer 1"><path class="cls-1" d="M439.79 424.92L386 196.13V43.1a8.83 8.83 0 0 0-8.83-8.84h-29.29l-6.46-27.45A8.83 8.83 0 0 0 330.8.24l-144.64 34H44.3a8.83 8.83 0 0 0-8.83 8.84v26.64L6.81 76.46A8.84 8.84 0 0 0 .23 87.08l35.24 149.77v235.77a8.83 8.83 0 0 0 8.83 8.83H93l5.58 23.74a8.83 8.83 0 0 0 8.6 6.81 8.65 8.65 0 0 0 2-.24l128.86-30.31h139a8.83 8.83 0 0 0 8.83-8.83v-26l47.25-11.12a8.84 8.84 0 0 0 6.67-10.58zm-71.49-373v69.12L352 51.93zm-315.17 0h58l-58 13.64zm0 411.86V311.93l35.73 151.86zm315.17 0h-55.14l55.14-13zm-254.53 28.77L19.45 91.63l306.8-72.18 94.32 400.92z"/><path class="cls-1" d="M173.7 233.92l-8.29-35.25a43 43 0 0 0-19.35-26.89 44 44 0 0 0-5.86-3 45.43 45.43 0 0 0 3.46-4.83 45.1 45.1 0 1 0-56.78 17.35 43.2 43.2 0 0 0-9.26 38l8.29 35.25a8.8 8.8 0 0 0 10.62 6.58l70.59-16.61a8.82 8.82 0 0 0 6.58-10.62zm-95.08-87.47a27.43 27.43 0 1 1 33 20.42 27.46 27.46 0 0 1-33-20.42zm22.47 95.48l-6.27-26.65a25.63 25.63 0 0 1 19.06-30.8l3.53-.83a26 26 0 0 1 5.92-.69 25.65 25.65 0 0 1 24.88 19.76l6.27 26.65zm160.68 173.3a8.84 8.84 0 0 0-10.62-6.58L143.46 434a8.83 8.83 0 1 0 4 17.19l107.7-25.33a8.83 8.83 0 0 0 6.61-10.63zm107.7-65.93a8.85 8.85 0 0 0-10.62-6.58l-224.44 52.81a8.83 8.83 0 1 0 4 17.19l224.44-52.8a8.84 8.84 0 0 0 6.62-10.62zm-9.05-38.46a8.84 8.84 0 0 0-10.62-6.58l-224.44 52.8a8.83 8.83 0 0 0 4 17.2l224.44-52.81a8.83 8.83 0 0 0 6.62-10.61zm-9.05-38.47a8.83 8.83 0 0 0-10.62-6.57l-224.44 52.8a8.83 8.83 0 0 0 4 17.2L344.79 283a8.83 8.83 0 0 0 6.58-10.63zm-9.05-38.46a8.83 8.83 0 0 0-10.62-6.57l-224.44 52.8a8.83 8.83 0 1 0 4 17.19l224.44-52.8a8.84 8.84 0 0 0 6.62-10.62zm-13.98-59.43a8.83 8.83 0 0 0-10.62-6.57L199.16 195.8a8.84 8.84 0 0 0 4.05 17.2l118.55-27.9a8.84 8.84 0 0 0 6.58-10.62zM319.29 136a8.83 8.83 0 0 0-10.62-6.57l-118.56 27.91a8.83 8.83 0 1 0 4 17.19l118.55-27.89a8.83 8.83 0 0 0 6.63-10.64zM241 95.39a8.82 8.82 0 0 0-10.62-6.57L177 101.38a8.83 8.83 0 1 0 4 17.19L234.39 106A8.83 8.83 0 0 0 241 95.39z"/></g></g></svg>