<svg xmlns="http://www.w3.org/2000/svg" viewBox="0 0 512 512"><defs><style>.cls-1{fill:#302482}</style></defs><g id="Слой_2" data-name="Слой 2"><g id="Layer_1" data-name="Layer 1"><path class="cls-1" d="M171.34 0v81.11H0V512h340.66v-81.11H512V0zm15.21 20.18L302.7 81.11H186.55zm138.9 410.71v65.9H15.21V96.32h310.24zm171.34-15.21H340.66V81.11h-5.23l-125.62-65.9h287z"/><path class="cls-1" d="M33.46 136.87v187.57h274.75V136.87zm19.21 172.36l58.55-109.4a8.63 8.63 0 0 1 15-.33l64.91 109.73zm156.15 0l-16-27.13 17.16-30.4a12.68 12.68 0 0 1 19.84-1.7L285 309.23zM293 295.49l-52-55.87a27.89 27.89 0 0 0-44 4.09L183.83 267l-44.5-75.24a23.82 23.82 0 0 0-41.51.89l-49.15 91.83v-132.4H293v143.41z"/><path class="cls-1" d="M247.89 165.26a27.88 27.88 0 1 0 27.88 27.88 27.92 27.92 0 0 0-27.88-27.88zm0 40.55a12.67 12.67 0 1 1 12.67-12.67 12.68 12.68 0 0 1-12.67 12.67zM32.95 347.75h121.66v15.21H32.95zm0 32.45h121.66v15.21H32.95zm0 32.44h121.66v15.21H32.95zm0 32.45h121.66v15.21H32.95zm152.08-97.34h121.66v15.21H185.03zm0 32.45h121.66v15.21H185.03zm0 32.44h121.66v15.21H185.03zm0 32.45h81.11v15.21h-81.11zM310.75 39.54v15.21h150.56v84.15H353.33v15.21h123.19V39.54H310.75zM366 171.34v108.49h110.52V171.34zm95.31 93.28h-80.1v-78.07h80.1zm-95.81 30.41h111.53v15.21H365.5zm0 29.07h111.53v15.21H365.5zm0 29.06h111.53v15.21H365.5zm0 29.07h68.94v15.21H365.5z"/></g></g></svg>