<svg xmlns="http://www.w3.org/2000/svg" viewBox="0 0 512 419.23"><defs><style>.cls-1{fill:#302482}</style></defs><g id="Слой_2" data-name="Слой 2"><g id="Capa_1" data-name="Capa 1"><path class="cls-1" d="M264.26 345.68V99.09a8.26 8.26 0 0 0-16.52 0v246.59a8.26 8.26 0 1 0 16.52 0z"/><path class="cls-1" d="M503.74 37.06c-17.46 0-39.21-7.54-62.24-15.51C412.33 11.45 379.26 0 345 0c-39.68 0-63.88 17.39-77.2 32A100.85 100.85 0 0 0 256 47.75 100.22 100.22 0 0 0 244.23 32C230.91 17.39 206.71 0 167 0c-34.26 0-67.32 11.45-96.49 21.55-23 8-44.79 15.51-62.25 15.51A8.26 8.26 0 0 0 0 45.32v332.62a8.26 8.26 0 0 0 8.26 8.26c20.24 0 43.27-8 67.65-16.42 27.94-9.67 59.61-20.64 91.12-20.64 27 0 48.89 8.95 65 26.6a8.26 8.26 0 0 0 12.2-11.14c-13.32-14.59-37.52-32-77.2-32-34.29 0-67.36 11.44-96.52 21.54-19.53 6.77-38.14 13.21-54 15v-316c18.15-1.73 38.26-8.69 59.39-16 27.94-9.68 59.61-20.64 91.12-20.64 63.73 0 80.4 50.6 81.08 52.73a8.25 8.25 0 0 0 15.78 0c.17-.53 16.94-52.73 81.08-52.73 31.51 0 63.18 11 91.12 20.64 21.13 7.31 41.24 14.27 59.39 16v316c-15.85-1.81-34.46-8.25-54-15-29.17-10.11-62.24-21.55-96.53-21.55-39.68 0-63.88 17.38-77.2 32A8.26 8.26 0 1 0 280 375.74c16.12-17.65 38-26.6 65-26.6 31.51 0 63.18 11 91.12 20.64 24.38 8.45 47.42 16.42 67.65 16.42a8.26 8.26 0 0 0 8.26-8.26V45.32a8.26 8.26 0 0 0-8.29-8.26z"/><path class="cls-1" d="M503.74 402.72c-17.46 0-39.21-7.54-62.24-15.51-29.17-10.1-62.24-21.55-96.53-21.55-37.26 0-60.88 15.34-74.65 29.28h-28.64C227.91 381 204.29 365.66 167 365.66c-34.29 0-67.36 11.45-96.52 21.55-23 8-44.79 15.51-62.25 15.51a8.26 8.26 0 1 0 0 16.51c20.24 0 43.27-8 67.65-16.42 27.94-9.67 59.61-20.64 91.12-20.64 27 0 48.89 8.95 65 26.6a8.28 8.28 0 0 0 6.1 2.69h35.74a8.25 8.25 0 0 0 6.09-2.69c16.12-17.65 38-26.6 65-26.6 31.51 0 63.18 11 91.12 20.64 24.38 8.45 47.41 16.42 67.65 16.42a8.26 8.26 0 1 0 0-16.51z"/></g></g></svg>