<svg xmlns="http://www.w3.org/2000/svg" viewBox="0 0 414.4 511.99"><g data-name="Слой 2"><path d="M376.76 0H48.3C43 0 37.64 3.67 37.64 9v49h-28a9.66 9.66 0 0 0 0 19.32h28v29h-28a9.66 9.66 0 0 0 0 19.32h28v29h-28a9.66 9.66 0 0 0 0 19.32h28v29h-28a9.66 9.66 0 0 0 0 19.32h28v29h-28a9.66 9.66 0 1 0 0 19.32h28v29h-28a9.66 9.66 0 0 0 0 19.32h28v29h-28a9.66 9.66 0 0 0 0 19.32h28v29h-28a9.66 9.66 0 0 0 0 19.32h28v29h-28a9.66 9.66 0 0 0 0 19.32h28v38C37.64 507 43 512 48.3 512h328.45c21.31 0 37.65-18 37.65-39.29V38c0-21.32-16.34-38-37.64-38zm-39.65 492.68H57v-29h30a9.66 9.66 0 1 0 0-19.32H57v-29h30a9.66 9.66 0 0 0 0-19.32H57v-29h30a9.66 9.66 0 0 0 0-19.32H57v-29h30a9.66 9.66 0 1 0 0-19.31H57v-29h30a9.66 9.66 0 0 0 0-19.32H57v-29h30a9.66 9.66 0 0 0 0-19.32H57v-29h30a9.66 9.66 0 0 0 0-19.32H57v-29h30a9.66 9.66 0 0 0 0-19.32H57v-29h30a9.66 9.66 0 0 0 0-19.32H57V19.32h280.11zm58-20c0 10.65-7.67 20-18.33 20h-20.35V19.32h20.32c10.66 0 18.33 8 18.33 18.67z" fill="#302482" data-name="Layer 1"/></g></svg>