<svg xmlns="http://www.w3.org/2000/svg" viewBox="0 0 512 512"><defs><style>.cls-1{fill:#302482}</style></defs><g id="Слой_2" data-name="Слой 2"><g id="Capa_1" data-name="Capa 1"><path class="cls-1" d="M428.8 93.87c-13.34-7.15-96.27-51.8-141.85-80.4a42.29 42.29 0 0 0-61.9 0C179.46 42.06 96.54 86.72 83.2 93.87H0V512h512V93.87zM275 25.63a.64.64 0 0 0 .08.14 26.16 26.16 0 0 1 5.61 10.38c.1.38.27.74.36 1.14a25.28 25.28 0 0 1 .58 5.38 25.6 25.6 0 0 1-51.2 0 24.63 24.63 0 0 1 .59-5.38c.08-.39.25-.74.35-1.13A26.33 26.33 0 0 1 237 25.77s0-.09.08-.14a25.3 25.3 0 0 1 37.94 0zm-61.62 14.94v2.1a42.67 42.67 0 0 0 85.34 0c0-.7 0-1.4-.05-2.1 30.61 18.22 68.51 39.23 94.33 53.3H119c25.82-14.07 63.72-35.08 94.38-53.3zm-128 70.36h409.6v42.67H17.07v-42.67zm-68.26 384V170.67h477.81v324.26z"/><circle class="cls-1" cx="196.27" cy="238.93" r="8.53"/><circle class="cls-1" cx="256" cy="238.93" r="8.53"/><circle class="cls-1" cx="315.73" cy="238.93" r="8.53"/><circle class="cls-1" cx="375.47" cy="238.93" r="8.53"/><circle class="cls-1" cx="435.2" cy="238.93" r="8.53"/><path class="cls-1" d="M76.8 298.67a8.53 8.53 0 1 1-8.53 8.53 8.53 8.53 0 0 1 8.53-8.53zm59.73 0a8.53 8.53 0 1 1-8.53 8.53 8.53 8.53 0 0 1 8.53-8.53z"/><circle class="cls-1" cx="196.27" cy="307.2" r="8.53"/><circle class="cls-1" cx="256" cy="307.2" r="8.53"/><circle class="cls-1" cx="315.73" cy="307.2" r="8.53"/><circle class="cls-1" cx="375.47" cy="307.2" r="8.53"/><circle class="cls-1" cx="435.2" cy="307.2" r="8.53"/><path class="cls-1" d="M76.8 358.4a8.54 8.54 0 1 1-8.53 8.53 8.53 8.53 0 0 1 8.53-8.53zm59.73 0a8.54 8.54 0 1 1-8.53 8.53 8.53 8.53 0 0 1 8.53-8.53z"/><circle class="cls-1" cx="196.27" cy="366.93" r="8.53"/><circle class="cls-1" cx="256" cy="366.93" r="8.53"/><circle class="cls-1" cx="315.73" cy="366.93" r="8.53"/><circle class="cls-1" cx="375.47" cy="366.93" r="8.53"/><circle class="cls-1" cx="435.2" cy="366.93" r="8.53"/><path class="cls-1" d="M76.8 426.67a8.53 8.53 0 1 1-8.53 8.53 8.53 8.53 0 0 1 8.53-8.53zm59.73 0a8.53 8.53 0 1 1-8.53 8.53 8.53 8.53 0 0 1 8.53-8.53z"/><circle class="cls-1" cx="196.27" cy="435.2" r="8.53"/><circle class="cls-1" cx="256" cy="435.2" r="8.53"/><circle class="cls-1" cx="315.73" cy="435.2" r="8.53"/></g></g></svg>