<svg xmlns="http://www.w3.org/2000/svg" viewBox="0 0 512 477.87"><defs><style>.cls-1{fill:#302482}</style></defs><g id="Слой_2" data-name="Слой 2"><g id="Capa_1" data-name="Capa 1"><path class="cls-1" d="M512 20.58A20.6 20.6 0 0 0 491.42 0H20.58A20.6 20.6 0 0 0 0 20.58v98.89h25.6v320.76a37.69 37.69 0 0 0 37.63 37.64h385.54a37.68 37.68 0 0 0 37.63-37.64V119.47H512zM63.23 460.8a20.58 20.58 0 0 1-20.56-20.57V393a76.94 76.94 0 0 1 67.79 67.79zm406.1-20.57a20.58 20.58 0 0 1-20.56 20.57h-47.23a76.94 76.94 0 0 1 67.79-67.8zm0-64.33a94 94 0 0 0-84.89 84.9H127.57a94 94 0 0 0-84.9-84.9V119.47h426.66zm25.6-273.5H17.07V20.58a3.51 3.51 0 0 1 3.51-3.51h470.84a3.51 3.51 0 0 1 3.51 3.51z"/><path class="cls-1" d="M76.8 51.2a8.54 8.54 0 1 1-8.53 8.53 8.53 8.53 0 0 1 8.53-8.53z"/><circle class="cls-1" cx="51.2" cy="34.13" r="8.53"/><circle class="cls-1" cx="102.4" cy="34.13" r="8.53"/><circle class="cls-1" cx="51.2" cy="85.33" r="8.53"/><circle class="cls-1" cx="102.4" cy="85.33" r="8.53"/><path class="cls-1" d="M128 51.2a8.54 8.54 0 1 1-8.53 8.53A8.53 8.53 0 0 1 128 51.2zm51.2 0a8.54 8.54 0 1 1-8.53 8.53 8.53 8.53 0 0 1 8.53-8.53z"/><circle class="cls-1" cx="153.6" cy="34.13" r="8.53"/><path class="cls-1" d="M204.8 25.6a8.54 8.54 0 1 1-8.53 8.53 8.53 8.53 0 0 1 8.53-8.53z"/><circle class="cls-1" cx="153.6" cy="85.33" r="8.53"/><path class="cls-1" d="M204.8 76.8a8.54 8.54 0 1 1-8.53 8.53 8.53 8.53 0 0 1 8.53-8.53zm25.6-25.6a8.54 8.54 0 1 1-8.53 8.53 8.53 8.53 0 0 1 8.53-8.53zm51.2 0a8.54 8.54 0 1 1-8.53 8.53 8.53 8.53 0 0 1 8.53-8.53z"/><circle class="cls-1" cx="256" cy="34.13" r="8.53"/><circle class="cls-1" cx="307.2" cy="34.13" r="8.53"/><circle class="cls-1" cx="256" cy="85.33" r="8.53"/><circle class="cls-1" cx="307.2" cy="85.33" r="8.53"/><path class="cls-1" d="M332.8 51.2a8.54 8.54 0 1 1-8.53 8.53 8.53 8.53 0 0 1 8.53-8.53zm51.2 0a8.54 8.54 0 1 1-8.53 8.53A8.53 8.53 0 0 1 384 51.2z"/><circle class="cls-1" cx="358.4" cy="34.13" r="8.53"/><circle class="cls-1" cx="409.6" cy="34.13" r="8.53"/><circle class="cls-1" cx="358.4" cy="85.33" r="8.53"/><circle class="cls-1" cx="409.6" cy="85.33" r="8.53"/><path class="cls-1" d="M435.2 51.2a8.54 8.54 0 1 1-8.53 8.53 8.53 8.53 0 0 1 8.53-8.53z"/><circle class="cls-1" cx="460.8" cy="34.13" r="8.53"/><circle class="cls-1" cx="460.8" cy="85.33" r="8.53"/><path class="cls-1" d="M209.11 247.47h93.78a29.94 29.94 0 0 0 29.91-29.91V204.8a8.54 8.54 0 0 0-17.07 0v12.76a12.85 12.85 0 0 1-12.84 12.84h-93.78a12.85 12.85 0 0 1-12.84-12.84V204.8a8.54 8.54 0 0 0-17.07 0v12.76a29.94 29.94 0 0 0 29.91 29.91z"/></g></g></svg>