<svg xmlns="http://www.w3.org/2000/svg" viewBox="0 0 5662.67 5669.29"><defs><style>.cls-1{fill:#302482;}</style></defs><title>1</title><g id="Слой_2" data-name="Слой 2"><g id="Capa_1" data-name="Capa 1"><path class="cls-1" d="M4012.28,5667c25.58,1.16,50,2.33,75.55,2.33,273.14,0,500.95-98.8,679.95-292.9,1.16-1.17,3.48-3.49,4.65-4.65,63.92-76.71,136-146.45,212.7-219.68,52.3-50,105.77-101.12,155.75-154.58,238.27-248.73,237.1-563.72-2.33-803.15L4476,3531.82c-113.9-118.55-249.89-181.32-394-181.32-143,0-280.11,61.6-397.5,179l-391.7,391.69c-34.87-19.76-70.9-37.19-105.77-54.63-44.16-22.08-84.84-43-120.88-65.09-359.15-227.81-684.59-525.35-996.08-907.75-156.91-197.59-260.36-362.64-333.58-532.33,102.28-93,197.59-189.46,289.41-283.6,33.71-33.71,67.41-68.58,102.28-103.45,248.73-248.73,248.73-556.74,0-804.31L1799.27,841.1c-38.35-38.35-75.55-76.71-112.74-113.9-73.23-74.39-148.78-152.26-224.33-222C1348.3,391.29,1213.47,332,1070.51,332c-141.8,0-279,59.27-397.5,173.18L260.39,916.65c-151.1,151.1-237.11,334.74-255.71,547.44-20.92,265,27.9,546.28,153.43,885.67C352.21,2874,644,3361,1076.32,3881.67c526.52,627.64,1158.81,1123.94,1881.76,1473.79C3233.55,5486.8,3602,5640.23,4012.28,5667ZM1296,3699.19C884.54,3204.05,609.08,2743.78,426.6,2251,313.86,1947.61,272,1711.66,289.45,1487.34c12.78-145.29,68.57-266.17,173.18-369.61L872.92,707.44c62.76-60.44,131.34-91.82,198.75-91.82,66.25,0,131.34,31.38,194.11,93,73.22,68.58,144.12,140.64,218.51,216.19,37.19,38.35,75.55,77.87,115.07,116.23L1928.29,1370c134.82,134.82,134.82,267.33,0,402.15-34.87,34.87-69.74,69.74-103.45,104.61-102.28,103.44-197.59,201.08-303.36,295.22-2.32,2.33-3.48,3.49-5.81,5.81-94.15,94.15-80.2,184.81-57,252.22,1.16,3.49,2.32,5.81,3.49,9.3,84.84,204.57,204.56,398.67,388.2,631.13,331.26,408,680,725.27,1065.83,970.52,47.65,30.22,97.63,55.79,146.45,80.19,44.16,22.09,84.85,43,120.88,65.09,4.65,2.33,8.13,4.65,12.78,7,37.2,18.59,73.23,27.89,110.42,27.89,91.82,0,149.94-58.11,168.53-77.87l412.62-412.62c62.76-62.76,130.18-95.31,196.43-95.31,81.36,0,147.61,51.15,190.61,95.31l664.84,664.84c162.72,162.72,88.33,309.17-3.49,405.64-46.49,50-95.31,96.47-146.45,146.45-77.87,74.38-158.07,152.26-231.29,239.43-125.53,134.83-274.31,197.59-468.41,197.59-18.6,0-38.36-1.16-56.95-2.32C3671.73,5359,3337,5218.31,3084.77,5098.6,2396.69,4767.34,1795.78,4296.61,1296,3699.19Z"/><path class="cls-1" d="M3112.67,1037.53c-77.88-12.78-151.1,39.52-163.89,116.23-12.78,77.87,39.52,151.1,116.23,163.88,319.64,54.63,610.21,205.73,842.67,437,231.3,231.29,382.39,523,437,842.66,11.63,69.74,72.06,118.56,140.64,118.56,8.14,0,16.27-1.16,24.41-2.33,77.87-12.78,130.18-87.17,116.23-163.88-63.93-377.75-242.92-722.95-516.06-996.09C3834.45,1279.29,3490.41,1101.46,3112.67,1037.53Z"/><path class="cls-1" d="M5519.78,2667.07c8.14,0,16.28-1.16,24.41-2.32,77.88-12.79,130.18-87.18,116.23-163.89-105.77-625.31-401-1193.68-853.12-1645.81C4354,402.92,3785.64,107.69,3160.32,1.92c-77.87-12.78-151.1,39.52-163.88,116.23C2983.65,196,3036,269.25,3112.67,282c566,96.47,1082.1,363.8,1492.39,774.09s677.61,926.35,774.09,1492.39C5390.77,2618.25,5451.21,2667.07,5519.78,2667.07Z"/></g></g></svg>