<svg xmlns="http://www.w3.org/2000/svg" viewBox="0 0 328.6 370.14"><defs><style>.cls-1{fill:#302482;}</style></defs><title>2</title><g id="Слой_2" data-name="Слой 2"><g id="Capa_1" data-name="Capa 1"><path class="cls-1" d="M263.4,302.68a5.9,5.9,0,0,0,2.2-4.6V29.53a5.9,5.9,0,0,0-5.91-5.9H88.81a33.47,33.47,0,0,0-64,0H5.91A5.9,5.9,0,0,0,0,29.53V364.24a5.9,5.9,0,0,0,5.91,5.9H193.49a5.94,5.94,0,0,0,4.65-2.2Zm-63.95,47.25V304h45.93ZM56.82,11.81A21.67,21.67,0,0,1,76.1,23.63H37.54A21.77,21.77,0,0,1,56.82,11.81Zm-45,23.63H78.48V76.79a9.85,9.85,0,0,1-19.69,0V53.16a5.91,5.91,0,0,0-11.82,0V76.79a21.66,21.66,0,0,0,43.32,0V35.44h163.5V292.18H193.54a5.91,5.91,0,0,0-5.91,5.9v60.25H11.81Z"/><path class="cls-1" d="M212.44,272.1a5.91,5.91,0,0,0,0-11.82H53.16a5.91,5.91,0,1,0,0,11.82Z"/><path class="cls-1" d="M53.16,236.66H212.44a5.91,5.91,0,0,0,0-11.82H53.16a5.91,5.91,0,1,0,0,11.82Z"/><path class="cls-1" d="M53.16,201.22H212.44a5.91,5.91,0,0,0,0-11.82H53.16a5.91,5.91,0,1,0,0,11.82Z"/><path class="cls-1" d="M53.16,165.78H212.44a5.91,5.91,0,0,0,0-11.82H53.16a5.91,5.91,0,1,0,0,11.82Z"/><path class="cls-1" d="M53.16,130.34H212.44a5.91,5.91,0,1,0,0-11.81H53.16a5.91,5.91,0,1,0,0,11.81Z"/><path class="cls-1" d="M291.19,23.63h-7.87a5.91,5.91,0,1,0,0,11.81h2V358.33H222.23a5.91,5.91,0,1,0,0,11.81h69a5.9,5.9,0,0,0,5.91-5.9V29.53A5.9,5.9,0,0,0,291.19,23.63Z"/><path class="cls-1" d="M322.7,23.63h-7.88a5.91,5.91,0,1,0,0,11.81h2V358.33h-2a5.91,5.91,0,1,0,0,11.81h7.88a5.9,5.9,0,0,0,5.9-5.9V29.53A5.9,5.9,0,0,0,322.7,23.63Z"/></g></g></svg>