<svg xmlns="http://www.w3.org/2000/svg" viewBox="0 0 321.82 284.66"><defs><style>.cls-1{fill:#302482;}</style></defs><title>3</title><g id="Слой_2" data-name="Слой 2"><g id="Capa_1" data-name="Capa 1"><path class="cls-1" d="M312.58,155.83c16.31-16.23,11.27-49.06-17-49.06l-74.3,0c2.82-15.74,6.91-41.82,6.75-44.28C226.5,39.22,211.63,10.83,211,9.67c-2.71-5-16.4-11.9-30.18-9C163,4.52,161.18,15.88,161.25,19c0,0,.77,31.09.84,39.38-8.51,18.71-37.88,67.87-46.78,71.65a13.64,13.64,0,0,0-7-2H14.39A14.37,14.37,0,0,0,0,142.45V272.18a13.64,13.64,0,0,0,13.52,12.48H97.84A13.57,13.57,0,0,0,111.4,271.1v-4.3s3.13-.24,4.56.68c5.42,3.44,12.12,7.77,20.85,7.77H262.64c47,0,42-41.75,37.69-47.45,7.95-8.65,12.86-23.92,6.15-36C311.63,186.37,320.69,171.36,312.58,155.83ZM95,271.08H13.51V141.6H95ZM290.64,154.71l-.77,3.21c21.68,6.16,10.14,31.14-5.41,32.76l-.77,3.21c20.79,5.29,10.87,31-5.41,32.77l-.77,3.19c17,2.79,12.87,31.75-12.85,31.75l-128,0c-9,0-17.27-10.3-23.92-10.3H107V151.69c7.23-4.48,16.12-10.3,21.06-14.49,9.33-8,47.53-69.7,47.53-77.42s-.84-41.15-.84-41.15S182.21,9,198.93,16c0,0,14.08,26.39,15.51,47.42,0,0-6.33,43.33-9.74,56.92h88.72C315.22,120.39,311.06,151.51,290.64,154.71Z"/></g></g></svg>