<svg xmlns="http://www.w3.org/2000/svg" viewBox="0 0 5669.29 5315.37"><defs><style>.cls-1{fill:#302482;}</style></defs><title>4</title><g id="Слой_2" data-name="Слой 2"><g id="Capa_1" data-name="Capa 1"><path class="cls-1" d="M5400.49,1150.2H4607.55V91.84A91.83,91.83,0,0,0,4515.72,0H1153.56a91.84,91.84,0,0,0-91.84,91.84V1150.22H268.8C120.59,1150.2,0,1270.78,0,1419v2388.9c0,148.21,120.59,268.79,268.8,268.79h439v969.89c0,148.21,120.58,268.8,268.79,268.8H4692.68c148.21,0,268.79-120.59,268.79-268.8V4076.68h439c148.21,0,268.8-120.58,268.8-268.79V1419C5669.29,1270.78,5548.7,1150.2,5400.49,1150.2ZM4423.88,183.67V1241.22c0,.28,0,.55,0,.83s0,.55,0,.83v261.25H1245.39V1242.88c0-.28,0-.55,0-.83s0-.55,0-.83V183.67ZM1061.72,1333.88V1596a91.83,91.83,0,0,0,91.84,91.83H4515.72a91.83,91.83,0,0,0,91.83-91.83V1333.88h347.19v616c0,95.71-77.88,173.59-173.59,173.59h-3893c-95.71,0-173.59-77.88-173.59-173.59v-616Zm3631,3797.82H976.61a85.23,85.23,0,0,1-85.12-85.13V3985.32c0-.16,0-.31,0-.48s0-.32,0-.48V3368.84h170.23V4869.6a91.84,91.84,0,0,0,91.84,91.84H4515.72a91.83,91.83,0,0,0,91.83-91.84V3368.87h170.24V5046.59A85.21,85.21,0,0,1,4692.68,5131.7ZM1245.39,3368.87H4423.88V4777.79H1245.39Zm4240.23,439a85.23,85.23,0,0,1-85.13,85.12h-439V3368.87h85.12a91.84,91.84,0,0,0,0-183.67H622.7a91.84,91.84,0,0,0,0,183.67h85.12V3893h-439a85.23,85.23,0,0,1-85.13-85.12V1419a85.21,85.21,0,0,1,85.13-85.11H530.87v616c0,197,160.27,357.26,357.26,357.26h3893c197,0,357.26-160.27,357.26-357.26v-616h262.07a85.21,85.21,0,0,1,85.13,85.11v2388.9Z"/><path class="cls-1" d="M4692.68,2477.37c-148.21,0-268.8,120.59-268.8,268.8S4544.47,3015,4692.68,3015s268.79-120.58,268.79-268.79S4840.89,2477.37,4692.68,2477.37Zm0,353.91a85.13,85.13,0,1,1,85.12-85.13A85.23,85.23,0,0,1,4692.68,2831.28Z"/><path class="cls-1" d="M4073.33,2565.85c-99.43,0-180.32,80.89-180.32,180.32s80.89,180.31,180.32,180.31,180.32-80.89,180.32-180.31S4172.76,2565.85,4073.33,2565.85ZM4070,2746.17a3.35,3.35,0,1,1,6.7,0C4076.68,2749.86,4070,2749.85,4070,2746.17Z"/><path class="cls-1" d="M1572.41,1130l200.5-200.5L2150.36,1307a91.83,91.83,0,0,0,129.87-129.87l-67.77-67.78L2569.2,752.58,3123.62,1307a91.8,91.8,0,0,0,64.93,26.91h973.26a91.84,91.84,0,0,0,0-183.68H3226.6L2634.15,557.76a91.82,91.82,0,0,0-129.87,0l-421.7,421.69L1837.84,734.72a91.82,91.82,0,0,0-129.87,0l-265.42,265.43A91.83,91.83,0,0,0,1572.41,1130Z"/><path class="cls-1" d="M3454,980c148.21,0,268.79-120.59,268.79-268.8S3602.2,442.38,3454,442.38,3185.2,563,3185.2,711.17,3305.78,980,3454,980Zm0-353.91a85.13,85.13,0,1,1-85.12,85.12A85.22,85.22,0,0,1,3454,626.06Z"/></g></g></svg>