<svg xmlns="http://www.w3.org/2000/svg" viewBox="0 0 5092.69 5669.28"><defs><style>.cls-1{fill:#302482;}</style></defs><title>6</title><g id="Слой_2" data-name="Слой 2"><g id="Capa_1" data-name="Capa 1"><path class="cls-1" d="M480.42,3170.79a96.09,96.09,0,0,0-96.09,96.08V3651.2a96.09,96.09,0,1,0,192.17,0V3266.87A96.08,96.08,0,0,0,480.42,3170.79Z"/><path class="cls-1" d="M864.75,3363A96.09,96.09,0,0,0,768.67,3459v384.33a96.09,96.09,0,1,0,192.17,0V3459A96.09,96.09,0,0,0,864.75,3363Z"/><path class="cls-1" d="M4369.31,3878.63a96.08,96.08,0,0,0-107.61,159.12c264.11,177.83,334.05,536.09,156.23,800.18S3881.84,5172,3617.75,4994.17,3283.69,4458.08,3461.51,4194a576.5,576.5,0,0,1,477.92-254.52,96.09,96.09,0,1,0,0-192.17c-424.52.08-768.61,344.29-768.52,768.81s344.29,768.61,768.81,768.53,768.61-344.29,768.53-768.82A768.68,768.68,0,0,0,4369.31,3878.63Z"/><path class="cls-1" d="M5047.17,4196.82a1152.5,1152.5,0,0,0-627.32-728.18V1345.19a96.06,96.06,0,0,0-47.17-82.72L2258.83,13.38a96.07,96.07,0,0,0-97.81,0L47.18,1262.47c-2,1.15-3.46,2.88-5.38,4.22s-3.75,2.89-5.67,4.42a94.74,94.74,0,0,0-21.24,23.45c0,.67-1.15,1-1.53,1.73v.67A95.82,95.82,0,0,0,2.5,1328.38c0,2.88-.87,5.57-1.15,8.45S0,1342.31,0,1345.19V3843.37a96.08,96.08,0,0,0,47.18,82.73L2161,5175.19a80.42,80.42,0,0,0,7.78,3.27,76.45,76.45,0,0,0,8.07,3.45,85.72,85.72,0,0,0,66.11,0,78.05,78.05,0,0,0,8.17-3.45c2.49-1.16,5.18-1.83,7.68-3.27l573.72-339.08c176.54,611.55,815.4,964.2,1427,787.66S5223.71,4808.36,5047.17,4196.82ZM2209.93,207.66l499.63,295.26-740.8,437.76a96.14,96.14,0,1,0,97.81,165.55l832-491.27L3398.2,910.22,1473.25,2047.37,973.62,1752.11l804.89-475.62a96.14,96.14,0,1,0-97.81-165.55l-896,529.52L285,1345.19ZM1377.17,2213.89v641.55L880.8,2562.09V1920.54Zm1447.22,2005a1170.85,1170.85,0,0,0-31.62,417.41L2306,4924.12V4612a96.09,96.09,0,0,0-192.17,0v312.08L192.17,3788.6v-2275L688.63,1807v809.89a96.1,96.1,0,0,0,47.18,82.83l688.54,406.91a96.11,96.11,0,0,0,145-82.73V2327.36l544.5,321.79V4227.71a96.09,96.09,0,0,0,192.17,0V2649.15L4047.43,1620.09a96.1,96.1,0,0,0-97.81-165.46L2209.93,2482.73,1662.25,2159,3587.19,1021.49,4227.69,1400V3401.39C3614.42,3239.64,2986.14,3605.66,2824.39,4218.94Zm1115,1257.86c-530.65,0-960.83-430.18-960.83-960.84s430.18-960.84,960.83-960.84S4900.27,3985.3,4900.27,4516C4899.7,5046.38,4469.85,5476.21,3939.43,5476.8Z"/><path class="cls-1" d="M4293.26,4255.86a96.08,96.08,0,0,0-133.51,0L3795.31,4620.3l-76.2-76.19A96.08,96.08,0,0,0,3583.25,4680l144.13,144.13a96.08,96.08,0,0,0,135.86,0l432.38-432.38A96.08,96.08,0,0,0,4293.26,4255.86Z"/></g></g></svg>