<svg xmlns="http://www.w3.org/2000/svg" viewBox="0 0 5669.29 4724.41"><defs><style>.cls-1{fill:#302482;}</style></defs><title>7</title><g id="Слой_2" data-name="Слой 2"><g id="Capa_1" data-name="Capa 1"><path class="cls-1" d="M5662.39,1288.63a77.35,77.35,0,0,0-4.72-8.79,92.15,92.15,0,0,0-13-19.37,100.34,100.34,0,0,0-26.55-20.31,93.14,93.14,0,0,0-10.68-5.2c-1.8-.66-3.21-2-5.1-2.55L4517.76,902.36l-425.2-141.73a94.46,94.46,0,0,0-47.24-2L3428.41,570.9a95.52,95.52,0,0,0-55,0L1200.19,1232.31c-1.89.57-3.31,1.89-5.1,2.56a92.27,92.27,0,0,0-10.68,5.19,100.59,100.59,0,0,0-26.55,20.32,92.15,92.15,0,0,0-13,19.37,78.17,78.17,0,0,0-4.73,8.79,92.79,92.79,0,0,0-6.23,32.4v663.31H755.91v189h944.88v-189h-378V1455.68l566.93,197.2v803.81a94.47,94.47,0,0,0,59.34,87.78l472.44,189a94.49,94.49,0,0,0,129.64-87.78V1883l755.91,263V4308.09L1322.83,3618.33v-27.78a94.49,94.49,0,1,0-189,0V3685a94.5,94.5,0,0,0,63.4,89.2l2173.23,755.9h1.7a95.38,95.38,0,0,0,27.21,4.73h2.17a93.5,93.5,0,0,0,31.85-6.05,24.34,24.34,0,0,0,2.55-.47L5609.2,3678a94.49,94.49,0,0,0,60.09-87.4V1320.94A92.49,92.49,0,0,0,5662.39,1288.63Zm-4129,40.16L3401.57,760.16,3746.17,865,2012.6,1495.56ZM2362.2,2506.11l-283.46-113.39V1745.86l283.46,113.38Zm159.41-833.67-226.78-78.8L4047,956.5l284.32,86.74Zm880,306.24-592.34-206L4638.14,1136.5,5270,1328.79ZM5480.31,3526,3496.06,4302.52V2145.92l1984.25-689.76Z"/><rect class="cls-1" y="2645.67" width="377.95" height="188.98"/><rect class="cls-1" x="283.46" y="3212.6" width="283.46" height="188.98"/><path class="cls-1" d="M1322.83,3212.6v-189a94.49,94.49,0,1,0-189,0v189H755.91v189H2362.2v-189Z"/><rect class="cls-1" x="283.46" y="1984.25" width="283.46" height="188.98"/><path class="cls-1" d="M1322.83,2645.67V2362.2a94.49,94.49,0,0,0-189,0v283.47H566.93v189H1889.76v-189Z"/><rect class="cls-1" x="3212.6" width="1417.32" height="188.98"/><rect class="cls-1" x="2740.16" width="283.46" height="188.98"/><rect class="cls-1" x="1039.37" y="4535.43" width="1417.32" height="188.98"/><rect class="cls-1" x="566.93" y="4535.43" width="283.46" height="188.98"/><path class="cls-1" d="M4010.74,2088.66a94.48,94.48,0,0,0-120.85,32.13l-241.42,362.08,157.23,104.88L3874,2485v255.12h189v-414l136.73,68.41,84.56-169Z"/><path class="cls-1" d="M4672.16,1805.2a94.47,94.47,0,0,0-120.85,32.12L4309.89,2199.4l157.23,104.88,68.31-102.71v255.12h189v-414l136.72,68.4,84.57-169Z"/></g></g></svg>