<svg xmlns="http://www.w3.org/2000/svg" viewBox="0 0 398.01 512"><defs><style>.cls-1{fill:#302482}</style></defs><g id="Слой_2" data-name="Слой 2"><g id="Capa_1" data-name="Capa 1"><path class="cls-1" d="M342.68 308.61l35.68-28.12-.2-45.45L398 194.12l-19.74-40.92.2-45.46-35.68-28.22-19.55-41-44.35-10L243.4 0l-44.34 10.38L154.81 0l-35.48 28.52L75 38.5l-19.56 41-35.79 28.24.21 45.46L0 194.12 19.86 235l-.21 45.45 35.68 28.22 14.31 30.14-57.95 124.31 68.64-10.48L116.41 512l60.07-128.91 22.52-5.24 17.69 4.15 60.68 130 36.08-59.36 68.64 10.48-55.94-119.94zM114.5 477l-25.81-42.4-49 7.45L82 351.14l37.29 8.37L154.81 388zm84.56-116.21l-40.22 9.47-32.15-25.9-40.31-9.07L68.64 298l-32.46-25.6.2-41.32L18.34 194l18-37.19-.2-41.33 32.5-25.58 17.74-37.29 40.31-9.07 32.15-25.9L199.06 27l40.21-9.37 32.15 25.9 40.32 9.07 17.73 37.3 32.46 25.6-.2 41.33 18 37.08-18 37.09.2 41.33-32.46 25.6-17.73 37.29-40.32 9.07-32.15 25.9zm155 81.34l-49-7.46L279.28 477l-42.13-90.31 6.15 1.41 35.48-28.52 33.36-7.46z"/><path class="cls-1" d="M199.06 51.3c-78.72 0-142.82 64.1-142.82 142.82s64.1 142.81 142.82 142.81 142.81-64.1 142.81-142.81S277.77 51.3 199.06 51.3zm0 269.1a126.29 126.29 0 1 1 126.28-126.28A126.41 126.41 0 0 1 199.06 320.4z"/><path class="cls-1" d="M306.39 159.24h-82l-25.29-78-25.3 78h-82l66.2 48.18-25.3 78 66.32-48.18 66.31 48.18-25.29-78zm-107.33 57.55l-35 25.4 13.31-41.12-35-25.4h43.14l13.3-41.12 13.31 41.12h43.13l-35 25.4L234 242.19z"/></g></g></svg>