<svg xmlns="http://www.w3.org/2000/svg" viewBox="0 0 512 511.99"><defs><style>.cls-1{fill:#302482}</style></defs><g id="Слой_2" data-name="Слой 2"><g id="Capa_1" data-name="Capa 1"><path class="cls-1" d="M256 0c-65.88 0-119.47 59-119.47 131.41 0 70.46 108.67 185.35 113.29 190.2a8.53 8.53 0 0 0 12.36 0c4.62-4.85 113.28-119.74 113.28-190.2C375.46 59 321.88 0 256 0zm0 303.13c-23-25.41-102.4-117-102.4-171.72 0-63 45.94-114.34 102.4-114.34s102.4 51.3 102.4 114.34c0 54.71-79.4 146.3-102.4 171.72zm159.63 57.76a8.54 8.54 0 0 0-12.07 0L389 375.46H119.47a8.51 8.51 0 0 0-6 2.5L96.37 395a8.53 8.53 0 1 0 12.06 12.06L123 392.53h269.53a8.51 8.51 0 0 0 6-2.5l17.1-17.03a8.52 8.52 0 0 0 0-12.11zm0 68.27a8.52 8.52 0 0 0-12.07 0L389 443.73H119.47a8.47 8.47 0 0 0-6 2.5l-17.1 17.06a8.53 8.53 0 1 0 12.06 12.07L123 460.79h269.53a8.47 8.47 0 0 0 6-2.5l17.07-17.06a8.52 8.52 0 0 0 .03-12.07zm-270.56-19.57H128a8.54 8.54 0 0 0 0 17.07h17.07a8.54 8.54 0 0 0 0-17.07zm85.33 0h-34.13a8.54 8.54 0 1 0 0 17.07h34.13a8.54 8.54 0 0 0 0-17.07zm85.33 0H281.6a8.54 8.54 0 0 0 0 17.07h34.13a8.54 8.54 0 0 0 0-17.07zm68.27 0h-17.07a8.54 8.54 0 0 0 0 17.07H384a8.54 8.54 0 0 0 0-17.07z"/><path class="cls-1" d="M256 51.2a68.27 68.27 0 1 0 68.27 68.26A68.35 68.35 0 0 0 256 51.2zm0 119.46a51.2 51.2 0 1 1 51.2-51.2 51.25 51.25 0 0 1-51.2 51.2zm255.61 330.25l-85.33-273.06a8.54 8.54 0 0 0-8.15-6h-93.49a8.54 8.54 0 0 0-7.06 3.74c-23.09 34-49.76 64.49-61.58 77.53-11.82-13-38.48-43.5-61.59-77.53a8.54 8.54 0 0 0-7.06-3.74H93.87a8.55 8.55 0 0 0-8.15 6L.39 500.91A8.53 8.53 0 0 0 8.54 512h494.92a8.53 8.53 0 0 0 8.15-11.08zm-491.47-6l80-256h82.71c30.78 44.53 65.47 81.11 67 82.68a8.8 8.8 0 0 0 12.36 0c1.5-1.57 36.18-38.16 67-82.68h82.71l80 256z"/><path class="cls-1" d="M285.1 278.41a8.53 8.53 0 0 0-9.66 2.45c-8 9.49-14.83 17.2-19.44 22.28a776.582 776.582 0 0 1-19.45-22.28 8.55 8.55 0 0 0-9.66-2.45c-18.89 7.45-30.62 21.75-30.62 37.32 0 23.92 26.24 42.66 59.73 42.66s59.73-18.73 59.73-42.66c0-15.57-11.73-29.87-30.63-37.32zM256 341.33c-23.13 0-42.67-11.73-42.67-25.6 0-7.08 5.38-14 14.38-18.91 12.79 15 21.7 24.36 22.11 24.79a8.79 8.79 0 0 0 12.36 0c.41-.44 9.31-9.81 22.11-24.79 9 4.89 14.38 11.83 14.38 18.91-.01 13.87-19.55 25.6-42.67 25.6z"/></g></g></svg>