<svg xmlns="http://www.w3.org/2000/svg" viewBox="0 0 328.6 370.14"><defs><style>.cls-1{fill:#302482}</style></defs><g id="Слой_2" data-name="Слой 2"><g id="Capa_1" data-name="Capa 1"><path class="cls-1" d="M263.4 302.68a5.9 5.9 0 0 0 2.2-4.6V29.53a5.9 5.9 0 0 0-5.91-5.9H88.81a33.47 33.47 0 0 0-64 0H5.91A5.9 5.9 0 0 0 0 29.53v334.71a5.9 5.9 0 0 0 5.91 5.9h187.58a5.94 5.94 0 0 0 4.65-2.2zm-63.95 47.25V304h45.93zM56.82 11.81A21.67 21.67 0 0 1 76.1 23.63H37.54a21.77 21.77 0 0 1 19.28-11.82zm-45 23.63h66.66v41.35a9.85 9.85 0 0 1-19.69 0V53.16a5.91 5.91 0 0 0-11.82 0v23.63a21.66 21.66 0 0 0 43.32 0V35.44h163.5v256.74h-60.25a5.91 5.91 0 0 0-5.91 5.9v60.25H11.81z"/><path class="cls-1" d="M212.44 272.1a5.91 5.91 0 0 0 0-11.82H53.16a5.91 5.91 0 1 0 0 11.82zM53.16 236.66h159.28a5.91 5.91 0 0 0 0-11.82H53.16a5.91 5.91 0 1 0 0 11.82zm0-35.44h159.28a5.91 5.91 0 0 0 0-11.82H53.16a5.91 5.91 0 1 0 0 11.82zm0-35.44h159.28a5.91 5.91 0 0 0 0-11.82H53.16a5.91 5.91 0 1 0 0 11.82zm0-35.44h159.28a5.91 5.91 0 1 0 0-11.81H53.16a5.91 5.91 0 1 0 0 11.81zM291.19 23.63h-7.87a5.91 5.91 0 1 0 0 11.81h2v322.89h-63.09a5.91 5.91 0 1 0 0 11.81h69a5.9 5.9 0 0 0 5.91-5.9V29.53a5.9 5.9 0 0 0-5.95-5.9zm31.51 0h-7.88a5.91 5.91 0 1 0 0 11.81h2v322.89h-2a5.91 5.91 0 1 0 0 11.81h7.88a5.9 5.9 0 0 0 5.9-5.9V29.53a5.9 5.9 0 0 0-5.9-5.9z"/></g></g></svg>