<svg xmlns="http://www.w3.org/2000/svg" viewBox="0 0 321.82 284.66"><g data-name="Слой 2"><path d="M312.58 155.83c16.31-16.23 11.27-49.06-17-49.06h-74.3c2.82-15.74 6.91-41.82 6.75-44.28-1.53-23.27-16.4-51.66-17.03-52.82-2.71-5-16.4-11.9-30.18-9C163 4.52 161.18 15.88 161.25 19c0 0 .77 31.09.84 39.38-8.51 18.71-37.88 67.87-46.78 71.65a13.64 13.64 0 0 0-7-2H14.39A14.37 14.37 0 0 0 0 142.45v129.73a13.64 13.64 0 0 0 13.52 12.48h84.32a13.57 13.57 0 0 0 13.56-13.56v-4.3s3.13-.24 4.56.68c5.42 3.44 12.12 7.77 20.85 7.77h125.83c47 0 42-41.75 37.69-47.45 7.95-8.65 12.86-23.92 6.15-36 5.15-5.43 14.21-20.44 6.1-35.97zM95 271.08H13.51V141.6H95zm195.64-116.37l-.77 3.21c21.68 6.16 10.14 31.14-5.41 32.76l-.77 3.21c20.79 5.29 10.87 31-5.41 32.77l-.77 3.19c17 2.79 12.87 31.75-12.85 31.75h-128c-9 0-17.27-10.3-23.92-10.3H107v-99.61c7.23-4.48 16.12-10.3 21.06-14.49 9.33-8 47.53-69.7 47.53-77.42s-.84-41.15-.84-41.15S182.21 9 198.93 16c0 0 14.08 26.39 15.51 47.42 0 0-6.33 43.33-9.74 56.92h88.72c21.8.05 17.64 31.17-2.78 34.37z" fill="#302482" data-name="Capa 1"/></g></svg>