<svg xmlns="http://www.w3.org/2000/svg" viewBox="0 0 5669.29 5315.37"><defs><style>.cls-1{fill:#302482}</style></defs><g id="Слой_2" data-name="Слой 2"><g id="Capa_1" data-name="Capa 1"><path class="cls-1" d="M5400.49 1150.2h-792.94V91.84A91.83 91.83 0 0 0 4515.72 0H1153.56a91.84 91.84 0 0 0-91.84 91.84v1058.38H268.8C120.59 1150.2 0 1270.78 0 1419v2388.9c0 148.21 120.59 268.79 268.8 268.79h439v969.89c0 148.21 120.58 268.8 268.79 268.8h3716.09c148.21 0 268.79-120.59 268.79-268.8v-969.9h439c148.21 0 268.8-120.58 268.8-268.79V1419c.02-148.22-120.57-268.8-268.78-268.8zm-976.61-966.53v1320.46H1245.39V183.67zM1061.72 1333.88V1596a91.83 91.83 0 0 0 91.84 91.83h3362.16a91.83 91.83 0 0 0 91.83-91.83v-262.12h347.19v616c0 95.71-77.88 173.59-173.59 173.59h-3893c-95.71 0-173.59-77.88-173.59-173.59v-616zm3631 3797.82H976.61a85.23 85.23 0 0 1-85.12-85.13V3368.84h170.23V4869.6a91.84 91.84 0 0 0 91.84 91.84h3362.16a91.83 91.83 0 0 0 91.83-91.84V3368.87h170.24v1677.72a85.21 85.21 0 0 1-85.11 85.11zM1245.39 3368.87h3178.49v1408.92H1245.39zm4240.23 439a85.23 85.23 0 0 1-85.13 85.12h-439v-524.12h85.12a91.84 91.84 0 0 0 0-183.67H622.7a91.84 91.84 0 0 0 0 183.67h85.12V3893h-439a85.23 85.23 0 0 1-85.13-85.12V1419a85.21 85.21 0 0 1 85.13-85.11h262.05v616c0 197 160.27 357.26 357.26 357.26h3893c197 0 357.26-160.27 357.26-357.26v-616h262.07a85.21 85.21 0 0 1 85.13 85.11v2388.9z"/><path class="cls-1" d="M4692.68 2477.37c-148.21 0-268.8 120.59-268.8 268.8S4544.47 3015 4692.68 3015s268.79-120.58 268.79-268.79-120.58-268.84-268.79-268.84zm0 353.91a85.13 85.13 0 1 1 85.12-85.13 85.23 85.23 0 0 1-85.12 85.13zm-619.35-265.43c-99.43 0-180.32 80.89-180.32 180.32s80.89 180.31 180.32 180.31 180.32-80.89 180.32-180.31-80.89-180.32-180.32-180.32zm-3.33 180.32a3.35 3.35 0 1 1 6.7 0c-.02 3.69-6.7 3.68-6.7 0zM1572.41 1130l200.5-200.5 377.45 377.5a91.83 91.83 0 0 0 129.87-129.87l-67.77-67.78 356.74-356.77L3123.62 1307a91.8 91.8 0 0 0 64.93 26.91h973.26a91.84 91.84 0 0 0 0-183.68H3226.6l-592.45-592.47a91.82 91.82 0 0 0-129.87 0l-421.7 421.69-244.74-244.73a91.82 91.82 0 0 0-129.87 0l-265.42 265.43A91.83 91.83 0 0 0 1572.41 1130z"/><path class="cls-1" d="M3454 980c148.21 0 268.79-120.59 268.79-268.8S3602.2 442.38 3454 442.38 3185.2 563 3185.2 711.17 3305.78 980 3454 980zm0-353.91a85.13 85.13 0 1 1-85.12 85.12 85.22 85.22 0 0 1 85.12-85.15z"/></g></g></svg>