<svg xmlns="http://www.w3.org/2000/svg" viewBox="0 0 5669.29 5614.23"><defs><style>.cls-1{fill:#302482}</style></defs><g id="Слой_2" data-name="Слой 2"><g id="Capa_1" data-name="Capa 1"><path class="cls-1" d="M4741.4 4000.71L4424.31 3678a93.54 93.54 0 0 0-121.6-10.29L2921.17 4685.4 2432 4455.3l429.33-47.71a93.53 93.53 0 0 0 82.32-93.53V3910a93.55 93.55 0 0 0-93.54-93.54h-467.72L1594.81 3736a93.49 93.49 0 0 0-46.77 7.48l-536.9 230.1H0v187.08h1030.78a93.54 93.54 0 0 0 37.41-7.49l532.23-232.91 767.94 78.58h391.92v232l-346.08 43-502.3-53.32a93.73 93.73 0 0 0-49.57 177.72l1037.32 477a93.54 93.54 0 0 0 93.54-9.35l1360-999 187.08 194.56-1563 1365.64h-423.7l-1491.92-554.62a93.49 93.49 0 0 0-32.74-6.54H0V5053h1013l1491 555.61a93.42 93.42 0 0 0 32.74 5.61h475.16a93.49 93.49 0 0 0 61.73-23.38l1663.09-1453.57q2.37-2.07 4.59-4.28a93.53 93.53 0 0 0 .09-132.28zm248.81-1660.29l-493.88-513.52a93.44 93.44 0 0 0-59.86-29l-1010.2-93.54H3040.9l18.7-280.61 365.73-73.9L3936.05 1464a93.79 93.79 0 0 0 31.8 0l496.68-58.93-22.45-187.07-480.78 51.45-514.45-114.15a76.64 76.64 0 0 0-38.35 0l-455.5 93.54a93.53 93.53 0 0 0-75.76 86.06l-29.94 455.52a92.93 92.93 0 0 0-.16 5.78 93.53 93.53 0 0 0 93.7 93.37h477L4385 1977.5l497.62 521a93.59 93.59 0 0 0 67.35 29h662.24v-187.08zM4827.46 393a83.13 83.13 0 0 0-35.55-16.84L3201.78 2a93.53 93.53 0 0 0-76.7 17.77L2096.17 768.06l110.37 151.53 994.3-723 1528.4 359.18 825.93 642.6 114.12-150.59z"/><path class="cls-1" d="M3308.41 573.5a93.57 93.57 0 0 0-76.7 0l-561.22 280.62 84.18 166.49 523.81-261 428.4 174.92 69.22-174z"/><path class="cls-1" d="M2986.64 1783.88a748.27 748.27 0 0 1-429.29 580.8c-375.52 172.54-819.83 8-992.37-367.55s-8-819.83 367.56-992.37 819.83-8 992.37 367.55l169.3-78.57a935.35 935.35 0 0 0-849.29-543.45c-516.6 0-935.39 418.76-935.39 935.36S1728.3 2621 2244.89 2621c469.49.82 866.86-346.52 928.83-811.9z"/><text transform="rotate(-.36 331613.27 -306695.86)" font-size="1095.72" stroke="#302482" stroke-miterlimit="10" stroke-width="53" font-family="Circe-Regular,Circe" fill="#302482">₽</text></g></g></svg>