<svg xmlns="http://www.w3.org/2000/svg" viewBox="0 0 5092.69 5669.28"><defs><style>.cls-1{fill:#302482}</style></defs><g id="Слой_2" data-name="Слой 2"><g id="Capa_1" data-name="Capa 1"><path class="cls-1" d="M480.42 3170.79a96.09 96.09 0 0 0-96.09 96.08v384.33a96.09 96.09 0 1 0 192.17 0v-384.33a96.08 96.08 0 0 0-96.08-96.08zM864.75 3363a96.09 96.09 0 0 0-96.08 96v384.33a96.09 96.09 0 1 0 192.17 0V3459a96.09 96.09 0 0 0-96.09-96zm3504.56 515.63a96.08 96.08 0 0 0-107.61 159.12c264.11 177.83 334.05 536.09 156.23 800.18s-536.09 334.07-800.18 156.24-334.06-536.09-156.24-800.17a576.5 576.5 0 0 1 477.92-254.52 96.09 96.09 0 1 0 0-192.17c-424.52.08-768.61 344.29-768.52 768.81s344.29 768.61 768.81 768.53 768.61-344.29 768.53-768.82a768.68 768.68 0 0 0-338.94-637.2z"/><path class="cls-1" d="M5047.17 4196.82a1152.5 1152.5 0 0 0-627.32-728.18V1345.19a96.06 96.06 0 0 0-47.17-82.72L2258.83 13.38a96.07 96.07 0 0 0-97.81 0L47.18 1262.47c-2 1.15-3.46 2.88-5.38 4.22s-3.75 2.89-5.67 4.42a94.74 94.74 0 0 0-21.24 23.45c0 .67-1.15 1-1.53 1.73v.67a95.82 95.82 0 0 0-10.86 31.42c0 2.88-.87 5.57-1.15 8.45S0 1342.31 0 1345.19v2498.18a96.08 96.08 0 0 0 47.18 82.73L2161 5175.19a80.42 80.42 0 0 0 7.78 3.27 76.45 76.45 0 0 0 8.07 3.45 85.72 85.72 0 0 0 66.11 0 78.05 78.05 0 0 0 8.17-3.45c2.49-1.16 5.18-1.83 7.68-3.27l573.72-339.08c176.54 611.55 815.4 964.2 1427 787.66s964.18-815.41 787.64-1426.95zM2209.93 207.66l499.63 295.26-740.8 437.76a96.14 96.14 0 1 0 97.81 165.55l832-491.27 499.63 295.26-1924.95 1137.15-499.63-295.26 804.89-475.62a96.14 96.14 0 1 0-97.81-165.55l-896 529.52L285 1345.19zm-832.76 2006.23v641.55L880.8 2562.09v-641.55zm1447.22 2005a1170.85 1170.85 0 0 0-31.62 417.41L2306 4924.12V4612a96.09 96.09 0 0 0-192.17 0v312.08L192.17 3788.6v-2275L688.63 1807v809.89a96.1 96.1 0 0 0 47.18 82.83l688.54 406.91a96.11 96.11 0 0 0 145-82.73v-696.54l544.5 321.79v1578.56a96.09 96.09 0 0 0 192.17 0V2649.15l1741.41-1029.06a96.1 96.1 0 0 0-97.81-165.46l-1739.69 1028.1L1662.25 2159l1924.94-1137.51 640.5 378.51v2001.39c-613.27-161.75-1241.55 204.27-1403.3 817.55zm1115 1257.86c-530.65 0-960.83-430.18-960.83-960.84s430.18-960.84 960.83-960.84 960.88 430.23 960.88 960.93c-.57 530.38-430.42 960.21-960.84 960.8z"/><path class="cls-1" d="M4293.26 4255.86a96.08 96.08 0 0 0-133.51 0l-364.44 364.44-76.2-76.19A96.08 96.08 0 0 0 3583.25 4680l144.13 144.13a96.08 96.08 0 0 0 135.86 0l432.38-432.38a96.08 96.08 0 0 0-2.36-135.89z"/></g></g></svg>